<mxfile host="app.diagrams.net" modified="2022-01-24T03:05:37.505Z" agent="5.0 (Windows)" etag="vi4quIPQuvrYlqhACU43" version="16.4.2" type="github" pages="4">
  <diagram id="OsNSjx1kqLn11gIg794z" name="车道线检测">
    <mxGraphModel dx="4152" dy="1980" grid="1" gridSize="10" guides="1" tooltips="1" connect="1" arrows="1" fold="1" page="1" pageScale="1" pageWidth="827" pageHeight="1169" math="0" shadow="0">
      <root>
        <mxCell id="0" />
        <mxCell id="1" parent="0" />
        <mxCell id="H7W7E83JojFv2ZeTY5-T-4" style="edgeStyle=orthogonalEdgeStyle;rounded=0;orthogonalLoop=1;jettySize=auto;html=1;exitX=1;exitY=0.5;exitDx=0;exitDy=0;entryX=0;entryY=0.5;entryDx=0;entryDy=0;strokeColor=#0000FF;fillColor=#FF0000;" edge="1" parent="1" source="H7W7E83JojFv2ZeTY5-T-5" target="H7W7E83JojFv2ZeTY5-T-128">
          <mxGeometry relative="1" as="geometry" />
        </mxCell>
        <mxCell id="H7W7E83JojFv2ZeTY5-T-5" value="" style="rounded=1;whiteSpace=wrap;html=1;" vertex="1" parent="1">
          <mxGeometry x="1409" y="80" width="160" height="300" as="geometry" />
        </mxCell>
        <mxCell id="H7W7E83JojFv2ZeTY5-T-6" style="edgeStyle=orthogonalEdgeStyle;rounded=0;orthogonalLoop=1;jettySize=auto;html=1;exitX=1;exitY=0.5;exitDx=0;exitDy=0;entryX=0;entryY=0.5;entryDx=0;entryDy=0;strokeColor=#0000FF;" edge="1" parent="1">
          <mxGeometry relative="1" as="geometry">
            <mxPoint x="1370" y="230" as="sourcePoint" />
            <mxPoint x="1410" y="230" as="targetPoint" />
          </mxGeometry>
        </mxCell>
        <mxCell id="H7W7E83JojFv2ZeTY5-T-7" style="edgeStyle=orthogonalEdgeStyle;rounded=0;orthogonalLoop=1;jettySize=auto;html=1;exitX=1;exitY=0.25;exitDx=0;exitDy=0;entryX=0;entryY=0.25;entryDx=0;entryDy=0;strokeColor=#0000FF;fillColor=#FF0000;" edge="1" parent="1" source="H7W7E83JojFv2ZeTY5-T-8" target="H7W7E83JojFv2ZeTY5-T-128">
          <mxGeometry relative="1" as="geometry">
            <Array as="points">
              <mxPoint x="1390" y="155" />
              <mxPoint x="1390" y="50" />
              <mxPoint x="1590" y="50" />
              <mxPoint x="1590" y="155" />
            </Array>
          </mxGeometry>
        </mxCell>
        <mxCell id="H7W7E83JojFv2ZeTY5-T-8" value="" style="rounded=1;whiteSpace=wrap;html=1;" vertex="1" parent="1">
          <mxGeometry x="1209" y="80" width="160" height="300" as="geometry" />
        </mxCell>
        <mxCell id="H7W7E83JojFv2ZeTY5-T-9" style="edgeStyle=orthogonalEdgeStyle;rounded=0;orthogonalLoop=1;jettySize=auto;html=1;exitX=1;exitY=0.5;exitDx=0;exitDy=0;entryX=0;entryY=0.5;entryDx=0;entryDy=0;strokeColor=#0000FF;" edge="1" parent="1">
          <mxGeometry relative="1" as="geometry">
            <mxPoint x="1170" y="230" as="sourcePoint" />
            <mxPoint x="1210" y="230" as="targetPoint" />
          </mxGeometry>
        </mxCell>
        <mxCell id="H7W7E83JojFv2ZeTY5-T-10" value="" style="rounded=1;whiteSpace=wrap;html=1;" vertex="1" parent="1">
          <mxGeometry x="1009" y="80" width="160" height="300" as="geometry" />
        </mxCell>
        <mxCell id="H7W7E83JojFv2ZeTY5-T-11" style="edgeStyle=orthogonalEdgeStyle;rounded=0;orthogonalLoop=1;jettySize=auto;html=1;exitX=0.5;exitY=1;exitDx=0;exitDy=0;entryX=0.556;entryY=1.001;entryDx=0;entryDy=0;entryPerimeter=0;strokeColor=#0000FF;" edge="1" parent="1" source="H7W7E83JojFv2ZeTY5-T-13" target="H7W7E83JojFv2ZeTY5-T-8">
          <mxGeometry relative="1" as="geometry">
            <Array as="points">
              <mxPoint x="700" y="410" />
              <mxPoint x="1298" y="410" />
            </Array>
          </mxGeometry>
        </mxCell>
        <mxCell id="H7W7E83JojFv2ZeTY5-T-12" style="edgeStyle=orthogonalEdgeStyle;shape=flexArrow;rounded=0;orthogonalLoop=1;jettySize=auto;html=1;exitX=1;exitY=0.75;exitDx=0;exitDy=0;entryX=0;entryY=0.75;entryDx=0;entryDy=0;strokeColor=#000000;fillColor=#FFFF00;" edge="1" parent="1" source="H7W7E83JojFv2ZeTY5-T-13" target="H7W7E83JojFv2ZeTY5-T-10">
          <mxGeometry relative="1" as="geometry" />
        </mxCell>
        <mxCell id="H7W7E83JojFv2ZeTY5-T-13" value="" style="rounded=1;whiteSpace=wrap;html=1;fillColor=#FF8000;" vertex="1" parent="1">
          <mxGeometry x="517" y="80" width="360" height="300" as="geometry" />
        </mxCell>
        <mxCell id="H7W7E83JojFv2ZeTY5-T-14" style="edgeStyle=orthogonalEdgeStyle;rounded=0;orthogonalLoop=1;jettySize=auto;html=1;exitX=1;exitY=0.5;exitDx=0;exitDy=0;entryX=0;entryY=0.5;entryDx=0;entryDy=0;strokeColor=#0000FF;" edge="1" parent="1" source="H7W7E83JojFv2ZeTY5-T-15" target="H7W7E83JojFv2ZeTY5-T-13">
          <mxGeometry relative="1" as="geometry" />
        </mxCell>
        <mxCell id="H7W7E83JojFv2ZeTY5-T-15" value="" style="rounded=1;whiteSpace=wrap;html=1;" vertex="1" parent="1">
          <mxGeometry x="325" y="80" width="150" height="300" as="geometry" />
        </mxCell>
        <mxCell id="H7W7E83JojFv2ZeTY5-T-16" value="标准化输入" style="text;html=1;strokeColor=none;fillColor=none;align=center;verticalAlign=middle;whiteSpace=wrap;rounded=0;" vertex="1" parent="1">
          <mxGeometry x="360" y="89" width="80" height="30" as="geometry" />
        </mxCell>
        <mxCell id="H7W7E83JojFv2ZeTY5-T-17" value="AI模型适配" style="rounded=0;whiteSpace=wrap;html=1;" vertex="1" parent="1">
          <mxGeometry x="340" y="219" width="120" height="60" as="geometry" />
        </mxCell>
        <mxCell id="H7W7E83JojFv2ZeTY5-T-18" value="核心处理" style="text;html=1;strokeColor=none;fillColor=none;align=center;verticalAlign=middle;whiteSpace=wrap;rounded=0;" vertex="1" parent="1">
          <mxGeometry x="558" y="89" width="80" height="30" as="geometry" />
        </mxCell>
        <mxCell id="H7W7E83JojFv2ZeTY5-T-19" value="曲线拟合" style="text;html=1;strokeColor=none;fillColor=none;align=center;verticalAlign=middle;whiteSpace=wrap;rounded=0;" vertex="1" parent="1">
          <mxGeometry x="1060" y="89" width="63" height="30" as="geometry" />
        </mxCell>
        <mxCell id="H7W7E83JojFv2ZeTY5-T-20" value="抽样" style="rounded=0;whiteSpace=wrap;html=1;" vertex="1" parent="1">
          <mxGeometry x="1030" y="130" width="123" height="60" as="geometry" />
        </mxCell>
        <mxCell id="H7W7E83JojFv2ZeTY5-T-21" value="图像坐标系车道线拟合" style="rounded=0;whiteSpace=wrap;html=1;" vertex="1" parent="1">
          <mxGeometry x="1030" y="210" width="123" height="60" as="geometry" />
        </mxCell>
        <mxCell id="H7W7E83JojFv2ZeTY5-T-22" value="车辆坐标系车道线拟合" style="rounded=0;whiteSpace=wrap;html=1;" vertex="1" parent="1">
          <mxGeometry x="1030" y="290" width="123" height="60" as="geometry" />
        </mxCell>
        <mxCell id="H7W7E83JojFv2ZeTY5-T-23" value="历史数据修正车道线" style="rounded=0;whiteSpace=wrap;html=1;" vertex="1" parent="1">
          <mxGeometry x="1230" y="300" width="120" height="50" as="geometry" />
        </mxCell>
        <mxCell id="H7W7E83JojFv2ZeTY5-T-24" value="参数平滑" style="text;html=1;strokeColor=none;fillColor=none;align=center;verticalAlign=middle;whiteSpace=wrap;rounded=0;" vertex="1" parent="1">
          <mxGeometry x="1460" y="89" width="60" height="30" as="geometry" />
        </mxCell>
        <mxCell id="H7W7E83JojFv2ZeTY5-T-25" value="数据有效性验证" style="rounded=0;whiteSpace=wrap;html=1;" vertex="1" parent="1">
          <mxGeometry x="340" y="130" width="120" height="60" as="geometry" />
        </mxCell>
        <mxCell id="H7W7E83JojFv2ZeTY5-T-26" style="edgeStyle=orthogonalEdgeStyle;rounded=0;orthogonalLoop=1;jettySize=auto;html=1;exitX=1;exitY=0.5;exitDx=0;exitDy=0;entryX=0;entryY=0.5;entryDx=0;entryDy=0;strokeColor=#0000FF;" edge="1" parent="1" source="H7W7E83JojFv2ZeTY5-T-27" target="H7W7E83JojFv2ZeTY5-T-15">
          <mxGeometry relative="1" as="geometry" />
        </mxCell>
        <mxCell id="H7W7E83JojFv2ZeTY5-T-27" value="" style="rounded=1;whiteSpace=wrap;html=1;" vertex="1" parent="1">
          <mxGeometry x="120" y="80" width="150" height="300" as="geometry" />
        </mxCell>
        <mxCell id="H7W7E83JojFv2ZeTY5-T-28" value="输入" style="text;html=1;strokeColor=none;fillColor=none;align=center;verticalAlign=middle;whiteSpace=wrap;rounded=0;" vertex="1" parent="1">
          <mxGeometry x="165" y="89" width="60" height="30" as="geometry" />
        </mxCell>
        <mxCell id="H7W7E83JojFv2ZeTY5-T-29" value="" style="rounded=0;whiteSpace=wrap;html=1;fillColor=none;strokeColor=#FF9933;" vertex="1" parent="1">
          <mxGeometry x="135" y="119" width="120" height="151" as="geometry" />
        </mxCell>
        <mxCell id="H7W7E83JojFv2ZeTY5-T-30" style="edgeStyle=orthogonalEdgeStyle;rounded=0;orthogonalLoop=1;jettySize=auto;html=1;exitX=0.5;exitY=1;exitDx=0;exitDy=0;entryX=0.572;entryY=1.003;entryDx=0;entryDy=0;entryPerimeter=0;strokeColor=#0000FF;" edge="1" parent="1" source="H7W7E83JojFv2ZeTY5-T-31" target="H7W7E83JojFv2ZeTY5-T-5">
          <mxGeometry relative="1" as="geometry">
            <Array as="points">
              <mxPoint x="195" y="430" />
              <mxPoint x="1501" y="430" />
            </Array>
          </mxGeometry>
        </mxCell>
        <mxCell id="H7W7E83JojFv2ZeTY5-T-31" value="本车状态数据" style="rounded=0;whiteSpace=wrap;html=1;" vertex="1" parent="1">
          <mxGeometry x="135" y="330" width="120" height="40" as="geometry" />
        </mxCell>
        <mxCell id="H7W7E83JojFv2ZeTY5-T-32" value="&lt;font style=&quot;font-size: 10px&quot;&gt;车道线特征&lt;/font&gt;" style="rounded=1;whiteSpace=wrap;html=1;fillColor=#CCFFCC;" vertex="1" parent="1">
          <mxGeometry x="150" y="139" width="90" height="30" as="geometry" />
        </mxCell>
        <mxCell id="H7W7E83JojFv2ZeTY5-T-33" value="&lt;font style=&quot;font-size: 10px&quot;&gt;车道线点集&lt;/font&gt;" style="rounded=1;whiteSpace=wrap;html=1;fillColor=#CCFFCC;" vertex="1" parent="1">
          <mxGeometry x="150" y="169" width="90" height="30" as="geometry" />
        </mxCell>
        <mxCell id="H7W7E83JojFv2ZeTY5-T-34" value="&lt;font style=&quot;font-size: 10px&quot;&gt;车道线类型&lt;/font&gt;" style="rounded=1;whiteSpace=wrap;html=1;fillColor=#FF0000;" vertex="1" parent="1">
          <mxGeometry x="150" y="199" width="90" height="30" as="geometry" />
        </mxCell>
        <mxCell id="H7W7E83JojFv2ZeTY5-T-35" value="&lt;font style=&quot;font-size: 10px&quot;&gt;障碍物bbox&lt;/font&gt;" style="rounded=1;whiteSpace=wrap;html=1;fillColor=none;" vertex="1" parent="1">
          <mxGeometry x="150" y="229" width="90" height="30" as="geometry" />
        </mxCell>
        <mxCell id="H7W7E83JojFv2ZeTY5-T-36" value="AI输入数据" style="text;html=1;strokeColor=none;fillColor=none;align=center;verticalAlign=middle;whiteSpace=wrap;rounded=0;" vertex="1" parent="1">
          <mxGeometry x="162.5" y="119" width="65" height="20" as="geometry" />
        </mxCell>
        <mxCell id="H7W7E83JojFv2ZeTY5-T-37" value="摄像头图像帧数据" style="rounded=0;whiteSpace=wrap;html=1;" vertex="1" parent="1">
          <mxGeometry x="135" y="279" width="120" height="40" as="geometry" />
        </mxCell>
        <mxCell id="H7W7E83JojFv2ZeTY5-T-38" value="异常标记处理" style="rounded=0;whiteSpace=wrap;html=1;" vertex="1" parent="1">
          <mxGeometry x="340" y="300" width="120" height="60" as="geometry" />
        </mxCell>
        <mxCell id="H7W7E83JojFv2ZeTY5-T-39" style="edgeStyle=orthogonalEdgeStyle;shape=link;rounded=0;orthogonalLoop=1;jettySize=auto;html=1;exitX=1;exitY=0.5;exitDx=0;exitDy=0;entryX=0;entryY=0.5;entryDx=0;entryDy=0;strokeColor=#000000;" edge="1" parent="1" source="H7W7E83JojFv2ZeTY5-T-41" target="H7W7E83JojFv2ZeTY5-T-126">
          <mxGeometry relative="1" as="geometry" />
        </mxCell>
        <mxCell id="H7W7E83JojFv2ZeTY5-T-40" style="edgeStyle=orthogonalEdgeStyle;shape=flexArrow;rounded=0;orthogonalLoop=1;jettySize=auto;html=1;exitX=0.75;exitY=0;exitDx=0;exitDy=0;entryX=0.75;entryY=1;entryDx=0;entryDy=0;strokeColor=#000000;fillColor=#FFFF00;" edge="1" parent="1" source="H7W7E83JojFv2ZeTY5-T-41" target="H7W7E83JojFv2ZeTY5-T-44">
          <mxGeometry relative="1" as="geometry" />
        </mxCell>
        <mxCell id="H7W7E83JojFv2ZeTY5-T-41" value="车道线点集处理" style="rounded=0;whiteSpace=wrap;html=1;" vertex="1" parent="1">
          <mxGeometry x="538" y="310" width="120" height="60" as="geometry" />
        </mxCell>
        <mxCell id="H7W7E83JojFv2ZeTY5-T-42" style="edgeStyle=orthogonalEdgeStyle;shape=link;rounded=0;orthogonalLoop=1;jettySize=auto;html=1;exitX=1;exitY=0.5;exitDx=0;exitDy=0;entryX=0;entryY=0.5;entryDx=0;entryDy=0;strokeColor=#000000;" edge="1" parent="1" source="H7W7E83JojFv2ZeTY5-T-44" target="H7W7E83JojFv2ZeTY5-T-124">
          <mxGeometry relative="1" as="geometry" />
        </mxCell>
        <mxCell id="H7W7E83JojFv2ZeTY5-T-43" style="edgeStyle=orthogonalEdgeStyle;shape=flexArrow;rounded=0;orthogonalLoop=1;jettySize=auto;html=1;exitX=0.25;exitY=1;exitDx=0;exitDy=0;entryX=0.25;entryY=0;entryDx=0;entryDy=0;strokeColor=#000000;fillColor=#FFFF00;" edge="1" parent="1" source="H7W7E83JojFv2ZeTY5-T-44" target="H7W7E83JojFv2ZeTY5-T-41">
          <mxGeometry relative="1" as="geometry" />
        </mxCell>
        <mxCell id="H7W7E83JojFv2ZeTY5-T-44" value="车道线特征处理" style="rounded=0;whiteSpace=wrap;html=1;fillColor=#FFFF00;" vertex="1" parent="1">
          <mxGeometry x="538" y="221" width="120" height="60" as="geometry" />
        </mxCell>
        <mxCell id="H7W7E83JojFv2ZeTY5-T-45" value="参数化" style="text;html=1;strokeColor=none;fillColor=none;align=center;verticalAlign=middle;whiteSpace=wrap;rounded=0;" vertex="1" parent="1">
          <mxGeometry x="1258.5" y="89" width="63" height="30" as="geometry" />
        </mxCell>
        <mxCell id="H7W7E83JojFv2ZeTY5-T-46" value="车道线内边缘检测" style="rounded=0;whiteSpace=wrap;html=1;fillColor=#FF0000;" vertex="1" parent="1">
          <mxGeometry x="1230" y="230" width="120" height="40" as="geometry" />
        </mxCell>
        <mxCell id="H7W7E83JojFv2ZeTY5-T-47" value="车道线颜色识别" style="rounded=0;whiteSpace=wrap;html=1;fillColor=#FFFF00;" vertex="1" parent="1">
          <mxGeometry x="1230" y="130" width="120" height="40" as="geometry" />
        </mxCell>
        <mxCell id="H7W7E83JojFv2ZeTY5-T-48" style="edgeStyle=orthogonalEdgeStyle;rounded=0;orthogonalLoop=1;jettySize=auto;html=1;exitX=0.5;exitY=1;exitDx=0;exitDy=0;entryX=0.5;entryY=0;entryDx=0;entryDy=0;" edge="1" parent="1" source="H7W7E83JojFv2ZeTY5-T-50" target="H7W7E83JojFv2ZeTY5-T-44">
          <mxGeometry relative="1" as="geometry" />
        </mxCell>
        <mxCell id="H7W7E83JojFv2ZeTY5-T-49" style="edgeStyle=orthogonalEdgeStyle;shape=link;rounded=0;orthogonalLoop=1;jettySize=auto;html=1;exitX=1;exitY=0.5;exitDx=0;exitDy=0;entryX=-0.014;entryY=0.654;entryDx=0;entryDy=0;entryPerimeter=0;strokeColor=#000000;" edge="1" parent="1" source="H7W7E83JojFv2ZeTY5-T-50" target="H7W7E83JojFv2ZeTY5-T-122">
          <mxGeometry relative="1" as="geometry" />
        </mxCell>
        <mxCell id="H7W7E83JojFv2ZeTY5-T-50" value="图像帧处理" style="rounded=0;whiteSpace=wrap;html=1;" vertex="1" parent="1">
          <mxGeometry x="538" y="125" width="120" height="60" as="geometry" />
        </mxCell>
        <mxCell id="H7W7E83JojFv2ZeTY5-T-51" value="系数" style="text;html=1;strokeColor=none;fillColor=none;align=center;verticalAlign=middle;whiteSpace=wrap;rounded=0;" vertex="1" parent="1">
          <mxGeometry x="1370" y="199" width="40" height="20" as="geometry" />
        </mxCell>
        <mxCell id="H7W7E83JojFv2ZeTY5-T-52" value="Points" style="text;html=1;strokeColor=none;fillColor=none;align=center;verticalAlign=middle;whiteSpace=wrap;rounded=0;" vertex="1" parent="1">
          <mxGeometry x="478" y="179" width="40" height="20" as="geometry" />
        </mxCell>
        <mxCell id="H7W7E83JojFv2ZeTY5-T-53" value="Mask" style="text;html=1;strokeColor=none;fillColor=none;align=center;verticalAlign=middle;whiteSpace=wrap;rounded=0;" vertex="1" parent="1">
          <mxGeometry x="478" y="204" width="40" height="20" as="geometry" />
        </mxCell>
        <mxCell id="H7W7E83JojFv2ZeTY5-T-54" value="Bbox" style="text;html=1;strokeColor=none;fillColor=none;align=center;verticalAlign=middle;whiteSpace=wrap;rounded=0;" vertex="1" parent="1">
          <mxGeometry x="475" y="239" width="40" height="20" as="geometry" />
        </mxCell>
        <mxCell id="H7W7E83JojFv2ZeTY5-T-55" value="Flag" style="text;html=1;strokeColor=none;fillColor=none;align=center;verticalAlign=middle;whiteSpace=wrap;rounded=0;" vertex="1" parent="1">
          <mxGeometry x="475" y="260" width="40" height="20" as="geometry" />
        </mxCell>
        <mxCell id="H7W7E83JojFv2ZeTY5-T-56" style="edgeStyle=orthogonalEdgeStyle;rounded=0;orthogonalLoop=1;jettySize=auto;html=1;exitX=0;exitY=0.5;exitDx=0;exitDy=0;entryX=0.5;entryY=0;entryDx=0;entryDy=0;strokeColor=#0000FF;" edge="1" parent="1" source="H7W7E83JojFv2ZeTY5-T-58" target="H7W7E83JojFv2ZeTY5-T-13">
          <mxGeometry relative="1" as="geometry" />
        </mxCell>
        <mxCell id="H7W7E83JojFv2ZeTY5-T-57" style="edgeStyle=orthogonalEdgeStyle;rounded=0;orthogonalLoop=1;jettySize=auto;html=1;exitX=1;exitY=0.5;exitDx=0;exitDy=0;entryX=0.544;entryY=-0.012;entryDx=0;entryDy=0;entryPerimeter=0;strokeColor=#0000FF;" edge="1" parent="1" source="H7W7E83JojFv2ZeTY5-T-58" target="H7W7E83JojFv2ZeTY5-T-10">
          <mxGeometry relative="1" as="geometry">
            <mxPoint x="920" y="40" as="sourcePoint" />
          </mxGeometry>
        </mxCell>
        <mxCell id="H7W7E83JojFv2ZeTY5-T-58" value="摄像头内外标定参数" style="rounded=1;whiteSpace=wrap;html=1;fillColor=none;" vertex="1" parent="1">
          <mxGeometry x="863" y="10" width="120" height="60" as="geometry" />
        </mxCell>
        <mxCell id="H7W7E83JojFv2ZeTY5-T-59" value="coefs" style="text;html=1;strokeColor=none;fillColor=none;align=center;verticalAlign=middle;whiteSpace=wrap;rounded=0;" vertex="1" parent="1">
          <mxGeometry x="1170" y="200" width="40" height="20" as="geometry" />
        </mxCell>
        <mxCell id="H7W7E83JojFv2ZeTY5-T-60" value="车道线特征处理" style="text;html=1;strokeColor=none;fillColor=none;align=center;verticalAlign=middle;whiteSpace=wrap;rounded=0;" vertex="1" parent="1">
          <mxGeometry x="10" y="1046" width="70" height="69" as="geometry" />
        </mxCell>
        <mxCell id="H7W7E83JojFv2ZeTY5-T-61" value="&amp;nbsp;Laneline Points Sets" style="text;html=1;strokeColor=none;fillColor=none;align=center;verticalAlign=middle;whiteSpace=wrap;rounded=0;" vertex="1" parent="1">
          <mxGeometry x="885" y="194" width="120" height="26" as="geometry" />
        </mxCell>
        <mxCell id="H7W7E83JojFv2ZeTY5-T-62" value="" style="rounded=1;whiteSpace=wrap;html=1;" vertex="1" parent="1">
          <mxGeometry x="100" y="940" width="150" height="281" as="geometry" />
        </mxCell>
        <mxCell id="H7W7E83JojFv2ZeTY5-T-63" value="预处理" style="rounded=0;whiteSpace=wrap;html=1;" vertex="1" parent="1">
          <mxGeometry x="717" y="98" width="120" height="30" as="geometry" />
        </mxCell>
        <mxCell id="H7W7E83JojFv2ZeTY5-T-64" value="二值化处理" style="rounded=0;whiteSpace=wrap;html=1;" vertex="1" parent="1">
          <mxGeometry x="717" y="128" width="120" height="30" as="geometry" />
        </mxCell>
        <mxCell id="H7W7E83JojFv2ZeTY5-T-65" value="特征消除叠加处理" style="rounded=0;whiteSpace=wrap;html=1;" vertex="1" parent="1">
          <mxGeometry x="717" y="158" width="120" height="30" as="geometry" />
        </mxCell>
        <mxCell id="H7W7E83JojFv2ZeTY5-T-66" value="hough直线处理" style="rounded=0;whiteSpace=wrap;html=1;" vertex="1" parent="1">
          <mxGeometry x="718" y="237" width="120" height="30" as="geometry" />
        </mxCell>
        <mxCell id="H7W7E83JojFv2ZeTY5-T-67" value="滑动窗口曲线处理" style="rounded=0;whiteSpace=wrap;html=1;" vertex="1" parent="1">
          <mxGeometry x="718" y="267" width="120" height="30" as="geometry" />
        </mxCell>
        <mxCell id="H7W7E83JojFv2ZeTY5-T-68" value="鸟瞰处理" style="rounded=0;whiteSpace=wrap;html=1;" vertex="1" parent="1">
          <mxGeometry x="718" y="207" width="120" height="30" as="geometry" />
        </mxCell>
        <mxCell id="H7W7E83JojFv2ZeTY5-T-69" value="历史数据过滤噪点" style="rounded=0;whiteSpace=wrap;html=1;" vertex="1" parent="1">
          <mxGeometry x="719" y="309" width="120" height="30" as="geometry" />
        </mxCell>
        <mxCell id="H7W7E83JojFv2ZeTY5-T-70" value="物理特征过滤噪点" style="rounded=0;whiteSpace=wrap;html=1;" vertex="1" parent="1">
          <mxGeometry x="719" y="339" width="120" height="30" as="geometry" />
        </mxCell>
        <mxCell id="H7W7E83JojFv2ZeTY5-T-71" value="updated mask" style="text;html=1;strokeColor=none;fillColor=none;align=center;verticalAlign=middle;whiteSpace=wrap;rounded=0;" vertex="1" parent="1">
          <mxGeometry x="604" y="194" width="85" height="20" as="geometry" />
        </mxCell>
        <mxCell id="H7W7E83JojFv2ZeTY5-T-72" value="" style="group;fillColor=#FF0000;" vertex="1" connectable="0" parent="1">
          <mxGeometry x="100" y="520" width="1400" height="378" as="geometry" />
        </mxCell>
        <mxCell id="H7W7E83JojFv2ZeTY5-T-73" value="" style="rounded=0;whiteSpace=wrap;html=1;strokeColor=#FF0000;fillColor=#FFFFFF;" vertex="1" parent="H7W7E83JojFv2ZeTY5-T-72">
          <mxGeometry width="1400" height="378" as="geometry" />
        </mxCell>
        <mxCell id="H7W7E83JojFv2ZeTY5-T-74" value="" style="rounded=0;whiteSpace=wrap;html=1;fillColor=none;" vertex="1" parent="H7W7E83JojFv2ZeTY5-T-72">
          <mxGeometry x="110" y="121" width="130" height="151" as="geometry" />
        </mxCell>
        <mxCell id="H7W7E83JojFv2ZeTY5-T-75" value="" style="rounded=1;whiteSpace=wrap;html=1;" vertex="1" parent="H7W7E83JojFv2ZeTY5-T-72">
          <mxGeometry x="305" y="15" width="150" height="281" as="geometry" />
        </mxCell>
        <mxCell id="H7W7E83JojFv2ZeTY5-T-76" style="edgeStyle=orthogonalEdgeStyle;rounded=0;orthogonalLoop=1;jettySize=auto;html=1;exitX=1;exitY=0.5;exitDx=0;exitDy=0;entryX=0;entryY=0.5;entryDx=0;entryDy=0;" edge="1" parent="H7W7E83JojFv2ZeTY5-T-72" source="H7W7E83JojFv2ZeTY5-T-77" target="H7W7E83JojFv2ZeTY5-T-75">
          <mxGeometry relative="1" as="geometry" />
        </mxCell>
        <mxCell id="H7W7E83JojFv2ZeTY5-T-77" value="" style="rounded=1;whiteSpace=wrap;html=1;" vertex="1" parent="H7W7E83JojFv2ZeTY5-T-72">
          <mxGeometry x="100" y="15" width="150" height="281" as="geometry" />
        </mxCell>
        <mxCell id="H7W7E83JojFv2ZeTY5-T-78" value="输入" style="text;html=1;strokeColor=none;fillColor=none;align=center;verticalAlign=middle;whiteSpace=wrap;rounded=0;" vertex="1" parent="H7W7E83JojFv2ZeTY5-T-72">
          <mxGeometry x="135" y="26" width="80" height="30" as="geometry" />
        </mxCell>
        <mxCell id="H7W7E83JojFv2ZeTY5-T-79" value="图像帧预处理" style="text;html=1;strokeColor=none;fillColor=none;align=center;verticalAlign=middle;whiteSpace=wrap;rounded=0;" vertex="1" parent="H7W7E83JojFv2ZeTY5-T-72">
          <mxGeometry x="340" y="26" width="80" height="30" as="geometry" />
        </mxCell>
        <mxCell id="H7W7E83JojFv2ZeTY5-T-80" value="Frame" style="rounded=0;whiteSpace=wrap;html=1;" vertex="1" parent="H7W7E83JojFv2ZeTY5-T-72">
          <mxGeometry x="115" y="70" width="120" height="30" as="geometry" />
        </mxCell>
        <mxCell id="H7W7E83JojFv2ZeTY5-T-81" value="ROI处理" style="rounded=0;whiteSpace=wrap;html=1;" vertex="1" parent="H7W7E83JojFv2ZeTY5-T-72">
          <mxGeometry x="320" y="94" width="120" height="30" as="geometry" />
        </mxCell>
        <mxCell id="H7W7E83JojFv2ZeTY5-T-82" value="降噪滤波增强处理" style="rounded=0;whiteSpace=wrap;html=1;" vertex="1" parent="H7W7E83JojFv2ZeTY5-T-72">
          <mxGeometry x="320" y="174" width="120" height="30" as="geometry" />
        </mxCell>
        <mxCell id="H7W7E83JojFv2ZeTY5-T-83" value="灰度化处理" style="rounded=0;whiteSpace=wrap;html=1;" vertex="1" parent="H7W7E83JojFv2ZeTY5-T-72">
          <mxGeometry x="320" y="214" width="120" height="30" as="geometry" />
        </mxCell>
        <mxCell id="H7W7E83JojFv2ZeTY5-T-84" value="" style="rounded=1;whiteSpace=wrap;html=1;" vertex="1" parent="H7W7E83JojFv2ZeTY5-T-72">
          <mxGeometry x="499" y="15" width="150" height="281" as="geometry" />
        </mxCell>
        <mxCell id="H7W7E83JojFv2ZeTY5-T-85" style="edgeStyle=orthogonalEdgeStyle;rounded=0;orthogonalLoop=1;jettySize=auto;html=1;exitX=1;exitY=0.5;exitDx=0;exitDy=0;entryX=0;entryY=0.5;entryDx=0;entryDy=0;" edge="1" parent="H7W7E83JojFv2ZeTY5-T-72" source="H7W7E83JojFv2ZeTY5-T-75" target="H7W7E83JojFv2ZeTY5-T-84">
          <mxGeometry relative="1" as="geometry" />
        </mxCell>
        <mxCell id="H7W7E83JojFv2ZeTY5-T-86" value="二值化处理" style="text;html=1;strokeColor=none;fillColor=none;align=center;verticalAlign=middle;whiteSpace=wrap;rounded=0;" vertex="1" parent="H7W7E83JojFv2ZeTY5-T-72">
          <mxGeometry x="539" y="26" width="80" height="30" as="geometry" />
        </mxCell>
        <mxCell id="H7W7E83JojFv2ZeTY5-T-87" value="阈值处理" style="rounded=0;whiteSpace=wrap;html=1;" vertex="1" parent="H7W7E83JojFv2ZeTY5-T-72">
          <mxGeometry x="519" y="60" width="120" height="30" as="geometry" />
        </mxCell>
        <mxCell id="H7W7E83JojFv2ZeTY5-T-88" value="边缘检测" style="rounded=0;whiteSpace=wrap;html=1;" vertex="1" parent="H7W7E83JojFv2ZeTY5-T-72">
          <mxGeometry x="519" y="99" width="120" height="30" as="geometry" />
        </mxCell>
        <mxCell id="H7W7E83JojFv2ZeTY5-T-89" value="HLS/LAB处理" style="rounded=0;whiteSpace=wrap;html=1;" vertex="1" parent="H7W7E83JojFv2ZeTY5-T-72">
          <mxGeometry x="320" y="254" width="120" height="30" as="geometry" />
        </mxCell>
        <mxCell id="H7W7E83JojFv2ZeTY5-T-90" value="车道线颜色特征检测" style="rounded=0;whiteSpace=wrap;html=1;" vertex="1" parent="H7W7E83JojFv2ZeTY5-T-72">
          <mxGeometry x="519" y="137" width="120" height="30" as="geometry" />
        </mxCell>
        <mxCell id="H7W7E83JojFv2ZeTY5-T-91" value="特征叠加处理" style="rounded=0;whiteSpace=wrap;html=1;fillColor=#CCFFCC;" vertex="1" parent="H7W7E83JojFv2ZeTY5-T-72">
          <mxGeometry x="519" y="177" width="120" height="30" as="geometry" />
        </mxCell>
        <mxCell id="H7W7E83JojFv2ZeTY5-T-92" value="去除联通小区域" style="rounded=0;whiteSpace=wrap;html=1;" vertex="1" parent="H7W7E83JojFv2ZeTY5-T-72">
          <mxGeometry x="519" y="216" width="120" height="30" as="geometry" />
        </mxCell>
        <mxCell id="H7W7E83JojFv2ZeTY5-T-93" value="&lt;p style=&quot;margin-top: 0pt ; margin-bottom: 0pt ; margin-left: 0in ; text-indent: 0in&quot;&gt;&lt;span style=&quot;font-size: 11pt ; font-family: &amp;#34;calibri&amp;#34;&quot;&gt;SobelXY&lt;/span&gt;&lt;span style=&quot;font-size: 11pt&quot;&gt;过滤&lt;/span&gt;&lt;/p&gt;" style="rounded=0;whiteSpace=wrap;html=1;" vertex="1" parent="H7W7E83JojFv2ZeTY5-T-72">
          <mxGeometry x="519" y="256" width="120" height="30" as="geometry" />
        </mxCell>
        <mxCell id="H7W7E83JojFv2ZeTY5-T-94" value="鸟瞰处理" style="rounded=0;whiteSpace=wrap;html=1;fillColor=#FF0000;" vertex="1" parent="H7W7E83JojFv2ZeTY5-T-72">
          <mxGeometry x="320" y="133" width="120" height="30" as="geometry" />
        </mxCell>
        <mxCell id="H7W7E83JojFv2ZeTY5-T-95" value="" style="rounded=1;whiteSpace=wrap;html=1;" vertex="1" parent="H7W7E83JojFv2ZeTY5-T-72">
          <mxGeometry x="700" y="15" width="150" height="281" as="geometry" />
        </mxCell>
        <mxCell id="H7W7E83JojFv2ZeTY5-T-96" style="edgeStyle=orthogonalEdgeStyle;rounded=0;orthogonalLoop=1;jettySize=auto;html=1;exitX=1;exitY=0.5;exitDx=0;exitDy=0;entryX=0;entryY=0.5;entryDx=0;entryDy=0;" edge="1" parent="H7W7E83JojFv2ZeTY5-T-72" source="H7W7E83JojFv2ZeTY5-T-84" target="H7W7E83JojFv2ZeTY5-T-95">
          <mxGeometry relative="1" as="geometry" />
        </mxCell>
        <mxCell id="H7W7E83JojFv2ZeTY5-T-97" value="消除叠加处理" style="text;html=1;strokeColor=none;fillColor=none;align=center;verticalAlign=middle;whiteSpace=wrap;rounded=0;" vertex="1" parent="H7W7E83JojFv2ZeTY5-T-72">
          <mxGeometry x="735" y="26" width="80" height="30" as="geometry" />
        </mxCell>
        <mxCell id="H7W7E83JojFv2ZeTY5-T-98" value="天空背景特征消除" style="rounded=0;whiteSpace=wrap;html=1;" vertex="1" parent="H7W7E83JojFv2ZeTY5-T-72">
          <mxGeometry x="713.5" y="61" width="123" height="45" as="geometry" />
        </mxCell>
        <mxCell id="H7W7E83JojFv2ZeTY5-T-99" value="障碍物特征消除" style="rounded=0;whiteSpace=wrap;html=1;" vertex="1" parent="H7W7E83JojFv2ZeTY5-T-72">
          <mxGeometry x="713.5" y="119" width="123" height="40" as="geometry" />
        </mxCell>
        <mxCell id="H7W7E83JojFv2ZeTY5-T-100" value="本车特征消除" style="rounded=0;whiteSpace=wrap;html=1;" vertex="1" parent="H7W7E83JojFv2ZeTY5-T-72">
          <mxGeometry x="713.5" y="177" width="123" height="40" as="geometry" />
        </mxCell>
        <mxCell id="H7W7E83JojFv2ZeTY5-T-101" value="" style="rounded=1;whiteSpace=wrap;html=1;" vertex="1" parent="H7W7E83JojFv2ZeTY5-T-72">
          <mxGeometry x="940" y="15" width="150" height="281" as="geometry" />
        </mxCell>
        <mxCell id="H7W7E83JojFv2ZeTY5-T-102" style="edgeStyle=orthogonalEdgeStyle;rounded=0;orthogonalLoop=1;jettySize=auto;html=1;exitX=0.5;exitY=1;exitDx=0;exitDy=0;" edge="1" parent="H7W7E83JojFv2ZeTY5-T-72" source="H7W7E83JojFv2ZeTY5-T-89" target="H7W7E83JojFv2ZeTY5-T-101">
          <mxGeometry relative="1" as="geometry">
            <Array as="points">
              <mxPoint x="380" y="316" />
              <mxPoint x="1015" y="316" />
            </Array>
          </mxGeometry>
        </mxCell>
        <mxCell id="H7W7E83JojFv2ZeTY5-T-103" style="edgeStyle=orthogonalEdgeStyle;rounded=0;orthogonalLoop=1;jettySize=auto;html=1;exitX=1;exitY=0.5;exitDx=0;exitDy=0;entryX=0;entryY=0.5;entryDx=0;entryDy=0;" edge="1" parent="H7W7E83JojFv2ZeTY5-T-72" source="H7W7E83JojFv2ZeTY5-T-95" target="H7W7E83JojFv2ZeTY5-T-101">
          <mxGeometry relative="1" as="geometry" />
        </mxCell>
        <mxCell id="H7W7E83JojFv2ZeTY5-T-104" value="输出" style="text;html=1;strokeColor=none;fillColor=none;align=center;verticalAlign=middle;whiteSpace=wrap;rounded=0;" vertex="1" parent="H7W7E83JojFv2ZeTY5-T-72">
          <mxGeometry x="975" y="26" width="80" height="30" as="geometry" />
        </mxCell>
        <mxCell id="H7W7E83JojFv2ZeTY5-T-105" value="Bbox" style="rounded=0;whiteSpace=wrap;html=1;" vertex="1" parent="H7W7E83JojFv2ZeTY5-T-72">
          <mxGeometry x="115" y="140.5" width="120" height="30" as="geometry" />
        </mxCell>
        <mxCell id="H7W7E83JojFv2ZeTY5-T-106" value="points" style="rounded=0;whiteSpace=wrap;html=1;" vertex="1" parent="H7W7E83JojFv2ZeTY5-T-72">
          <mxGeometry x="115" y="177" width="120" height="30" as="geometry" />
        </mxCell>
        <mxCell id="H7W7E83JojFv2ZeTY5-T-107" value="Mask" style="rounded=0;whiteSpace=wrap;html=1;" vertex="1" parent="H7W7E83JojFv2ZeTY5-T-72">
          <mxGeometry x="115" y="216" width="120" height="30" as="geometry" />
        </mxCell>
        <mxCell id="H7W7E83JojFv2ZeTY5-T-108" value="cv二值化与mask叠加" style="rounded=0;whiteSpace=wrap;html=1;fillColor=#CCFFCC;" vertex="1" parent="H7W7E83JojFv2ZeTY5-T-72">
          <mxGeometry x="713.5" y="236" width="123" height="40" as="geometry" />
        </mxCell>
        <mxCell id="H7W7E83JojFv2ZeTY5-T-109" style="edgeStyle=orthogonalEdgeStyle;rounded=0;orthogonalLoop=1;jettySize=auto;html=1;exitX=0.5;exitY=1;exitDx=0;exitDy=0;entryX=0.56;entryY=1.004;entryDx=0;entryDy=0;entryPerimeter=0;" edge="1" parent="H7W7E83JojFv2ZeTY5-T-72" source="H7W7E83JojFv2ZeTY5-T-110" target="H7W7E83JojFv2ZeTY5-T-95">
          <mxGeometry relative="1" as="geometry">
            <Array as="points">
              <mxPoint x="175" y="336" />
              <mxPoint x="784" y="336" />
            </Array>
          </mxGeometry>
        </mxCell>
        <mxCell id="H7W7E83JojFv2ZeTY5-T-110" value="" style="rounded=0;whiteSpace=wrap;html=1;fillColor=none;strokeColor=#FFB366;" vertex="1" parent="H7W7E83JojFv2ZeTY5-T-72">
          <mxGeometry x="110" y="129" width="130" height="137" as="geometry" />
        </mxCell>
        <mxCell id="H7W7E83JojFv2ZeTY5-T-111" value="frame" style="text;html=1;strokeColor=none;fillColor=none;align=center;verticalAlign=middle;whiteSpace=wrap;rounded=0;" vertex="1" parent="H7W7E83JojFv2ZeTY5-T-72">
          <mxGeometry x="260" y="129" width="40" height="20" as="geometry" />
        </mxCell>
        <mxCell id="H7W7E83JojFv2ZeTY5-T-112" value="gray" style="text;html=1;strokeColor=none;fillColor=none;align=center;verticalAlign=middle;whiteSpace=wrap;rounded=0;" vertex="1" parent="H7W7E83JojFv2ZeTY5-T-72">
          <mxGeometry x="458" y="163" width="40" height="20" as="geometry" />
        </mxCell>
        <mxCell id="H7W7E83JojFv2ZeTY5-T-113" value="hls" style="text;html=1;strokeColor=none;fillColor=none;align=center;verticalAlign=middle;whiteSpace=wrap;rounded=0;" vertex="1" parent="H7W7E83JojFv2ZeTY5-T-72">
          <mxGeometry x="460" y="184" width="40" height="20" as="geometry" />
        </mxCell>
        <mxCell id="H7W7E83JojFv2ZeTY5-T-114" value="lab" style="text;html=1;strokeColor=none;fillColor=none;align=center;verticalAlign=middle;whiteSpace=wrap;rounded=0;" vertex="1" parent="H7W7E83JojFv2ZeTY5-T-72">
          <mxGeometry x="460" y="205" width="40" height="20" as="geometry" />
        </mxCell>
        <mxCell id="H7W7E83JojFv2ZeTY5-T-115" value="binary" style="text;html=1;strokeColor=none;fillColor=none;align=center;verticalAlign=middle;whiteSpace=wrap;rounded=0;" vertex="1" parent="H7W7E83JojFv2ZeTY5-T-72">
          <mxGeometry x="654" y="129" width="40" height="20" as="geometry" />
        </mxCell>
        <mxCell id="H7W7E83JojFv2ZeTY5-T-116" value="Updated Mask" style="text;html=1;strokeColor=none;fillColor=none;align=center;verticalAlign=middle;whiteSpace=wrap;rounded=0;" vertex="1" parent="H7W7E83JojFv2ZeTY5-T-72">
          <mxGeometry x="852" y="129" width="84.5" height="28" as="geometry" />
        </mxCell>
        <mxCell id="H7W7E83JojFv2ZeTY5-T-117" value="HLS" style="rounded=0;whiteSpace=wrap;html=1;" vertex="1" parent="H7W7E83JojFv2ZeTY5-T-72">
          <mxGeometry x="955" y="60" width="120" height="30" as="geometry" />
        </mxCell>
        <mxCell id="H7W7E83JojFv2ZeTY5-T-118" value="LAB" style="rounded=0;whiteSpace=wrap;html=1;" vertex="1" parent="H7W7E83JojFv2ZeTY5-T-72">
          <mxGeometry x="955" y="100" width="120" height="30" as="geometry" />
        </mxCell>
        <mxCell id="H7W7E83JojFv2ZeTY5-T-119" value="Updated Mask" style="rounded=0;whiteSpace=wrap;html=1;" vertex="1" parent="H7W7E83JojFv2ZeTY5-T-72">
          <mxGeometry x="955" y="147" width="120" height="30" as="geometry" />
        </mxCell>
        <mxCell id="H7W7E83JojFv2ZeTY5-T-120" value="&lt;b&gt;图像帧处理&lt;/b&gt;" style="text;html=1;strokeColor=none;fillColor=none;align=center;verticalAlign=middle;whiteSpace=wrap;rounded=0;" vertex="1" parent="H7W7E83JojFv2ZeTY5-T-72">
          <mxGeometry y="127" width="70" height="69" as="geometry" />
        </mxCell>
        <mxCell id="H7W7E83JojFv2ZeTY5-T-121" value="场景检测" style="rounded=0;whiteSpace=wrap;html=1;fillColor=#FF3333;" vertex="1" parent="H7W7E83JojFv2ZeTY5-T-72">
          <mxGeometry x="320" y="56" width="120" height="30" as="geometry" />
        </mxCell>
        <mxCell id="H7W7E83JojFv2ZeTY5-T-122" value="" style="rounded=0;whiteSpace=wrap;html=1;fillColor=none;strokeColor=#FFFF99;" vertex="1" parent="1">
          <mxGeometry x="710" y="89.5" width="133" height="100.5" as="geometry" />
        </mxCell>
        <mxCell id="H7W7E83JojFv2ZeTY5-T-123" style="edgeStyle=orthogonalEdgeStyle;rounded=0;orthogonalLoop=1;jettySize=auto;html=1;exitX=1;exitY=0.5;exitDx=0;exitDy=0;entryX=-0.006;entryY=0.571;entryDx=0;entryDy=0;entryPerimeter=0;strokeColor=#0000FF;" edge="1" parent="1" source="H7W7E83JojFv2ZeTY5-T-124" target="H7W7E83JojFv2ZeTY5-T-10">
          <mxGeometry relative="1" as="geometry" />
        </mxCell>
        <mxCell id="H7W7E83JojFv2ZeTY5-T-124" value="" style="rounded=0;whiteSpace=wrap;html=1;fillColor=none;strokeColor=#FFFF99;" vertex="1" parent="1">
          <mxGeometry x="712.5" y="202" width="133" height="98" as="geometry" />
        </mxCell>
        <mxCell id="H7W7E83JojFv2ZeTY5-T-125" style="edgeStyle=orthogonalEdgeStyle;rounded=0;orthogonalLoop=1;jettySize=auto;html=1;exitX=1;exitY=0.5;exitDx=0;exitDy=0;strokeColor=#0000FF;" edge="1" parent="1" source="H7W7E83JojFv2ZeTY5-T-126">
          <mxGeometry relative="1" as="geometry">
            <mxPoint x="1010.0000000000002" y="340" as="targetPoint" />
          </mxGeometry>
        </mxCell>
        <mxCell id="H7W7E83JojFv2ZeTY5-T-126" value="" style="rounded=0;whiteSpace=wrap;html=1;fillColor=none;strokeColor=#FFFF99;" vertex="1" parent="1">
          <mxGeometry x="712.5" y="307" width="133" height="66" as="geometry" />
        </mxCell>
        <mxCell id="H7W7E83JojFv2ZeTY5-T-127" style="edgeStyle=orthogonalEdgeStyle;rounded=0;orthogonalLoop=1;jettySize=auto;html=1;exitX=1;exitY=0.5;exitDx=0;exitDy=0;entryX=0;entryY=0.5;entryDx=0;entryDy=0;strokeColor=#0000FF;fillColor=#FF0000;" edge="1" parent="1" source="H7W7E83JojFv2ZeTY5-T-128" target="H7W7E83JojFv2ZeTY5-T-143">
          <mxGeometry relative="1" as="geometry" />
        </mxCell>
        <mxCell id="H7W7E83JojFv2ZeTY5-T-128" value="" style="rounded=1;whiteSpace=wrap;html=1;" vertex="1" parent="1">
          <mxGeometry x="1617" y="80" width="160" height="300" as="geometry" />
        </mxCell>
        <mxCell id="H7W7E83JojFv2ZeTY5-T-129" value="预测跟踪" style="text;html=1;strokeColor=none;fillColor=none;align=center;verticalAlign=middle;whiteSpace=wrap;rounded=0;" vertex="1" parent="1">
          <mxGeometry x="1668" y="89" width="60" height="30" as="geometry" />
        </mxCell>
        <mxCell id="H7W7E83JojFv2ZeTY5-T-130" value="数据预测" style="rounded=0;whiteSpace=wrap;html=1;" vertex="1" parent="1">
          <mxGeometry x="1638" y="130" width="120" height="60" as="geometry" />
        </mxCell>
        <mxCell id="H7W7E83JojFv2ZeTY5-T-131" value="数据匹配" style="rounded=0;whiteSpace=wrap;html=1;fillColor=#FFFF00;" vertex="1" parent="1">
          <mxGeometry x="1638" y="214" width="120" height="60" as="geometry" />
        </mxCell>
        <mxCell id="H7W7E83JojFv2ZeTY5-T-132" value="数据更新" style="rounded=0;whiteSpace=wrap;html=1;" vertex="1" parent="1">
          <mxGeometry x="1638" y="300" width="120" height="60" as="geometry" />
        </mxCell>
        <mxCell id="H7W7E83JojFv2ZeTY5-T-133" value="车道线系数离散" style="rounded=0;whiteSpace=wrap;html=1;" vertex="1" parent="1">
          <mxGeometry x="1430" y="130" width="120" height="30" as="geometry" />
        </mxCell>
        <mxCell id="H7W7E83JojFv2ZeTY5-T-134" value="KF/EKF" style="rounded=0;whiteSpace=wrap;html=1;" vertex="1" parent="1">
          <mxGeometry x="1430" y="169" width="120" height="30" as="geometry" />
        </mxCell>
        <mxCell id="H7W7E83JojFv2ZeTY5-T-135" value="最小二乘拟合" style="rounded=0;whiteSpace=wrap;html=1;" vertex="1" parent="1">
          <mxGeometry x="1430" y="213" width="120" height="30" as="geometry" />
        </mxCell>
        <mxCell id="H7W7E83JojFv2ZeTY5-T-136" value="C2,C3五点三次过滤" style="rounded=0;whiteSpace=wrap;html=1;" vertex="1" parent="1">
          <mxGeometry x="1430" y="255" width="120" height="30" as="geometry" />
        </mxCell>
        <mxCell id="H7W7E83JojFv2ZeTY5-T-137" value="均值滤波更新车道宽" style="rounded=0;whiteSpace=wrap;html=1;" vertex="1" parent="1">
          <mxGeometry x="1429" y="294" width="120" height="30" as="geometry" />
        </mxCell>
        <mxCell id="H7W7E83JojFv2ZeTY5-T-138" value="计算车道中心线系数" style="rounded=0;whiteSpace=wrap;html=1;" vertex="1" parent="1">
          <mxGeometry x="1429" y="335" width="120" height="30" as="geometry" />
        </mxCell>
        <mxCell id="H7W7E83JojFv2ZeTY5-T-139" value="系数标准差" style="text;html=1;strokeColor=none;fillColor=none;align=center;verticalAlign=middle;whiteSpace=wrap;rounded=0;" vertex="1" parent="1">
          <mxGeometry x="1370" y="250" width="40" height="20" as="geometry" />
        </mxCell>
        <mxCell id="H7W7E83JojFv2ZeTY5-T-140" value="状态标志位计算" style="text;html=1;strokeColor=none;fillColor=none;align=center;verticalAlign=middle;whiteSpace=wrap;rounded=0;" vertex="1" parent="1">
          <mxGeometry x="1300" y="410" width="230" height="20" as="geometry" />
        </mxCell>
        <mxCell id="H7W7E83JojFv2ZeTY5-T-141" value="Lane infor" style="text;html=1;strokeColor=none;fillColor=none;align=center;verticalAlign=middle;whiteSpace=wrap;rounded=0;" vertex="1" parent="1">
          <mxGeometry x="1460" y="24" width="70" height="20" as="geometry" />
        </mxCell>
        <mxCell id="H7W7E83JojFv2ZeTY5-T-142" value="lab/hls" style="text;html=1;strokeColor=none;fillColor=none;align=center;verticalAlign=middle;whiteSpace=wrap;rounded=0;" vertex="1" parent="1">
          <mxGeometry x="1090" y="387" width="140" height="20" as="geometry" />
        </mxCell>
        <mxCell id="H7W7E83JojFv2ZeTY5-T-143" value="" style="rounded=1;whiteSpace=wrap;html=1;" vertex="1" parent="1">
          <mxGeometry x="1828" y="80" width="160" height="300" as="geometry" />
        </mxCell>
        <mxCell id="H7W7E83JojFv2ZeTY5-T-144" value="输出" style="text;html=1;strokeColor=none;fillColor=none;align=center;verticalAlign=middle;whiteSpace=wrap;rounded=0;" vertex="1" parent="1">
          <mxGeometry x="1876" y="89" width="60" height="30" as="geometry" />
        </mxCell>
        <mxCell id="H7W7E83JojFv2ZeTY5-T-145" value="车道线拟合参数" style="rounded=0;whiteSpace=wrap;html=1;" vertex="1" parent="1">
          <mxGeometry x="1848" y="122" width="120" height="30" as="geometry" />
        </mxCell>
        <mxCell id="H7W7E83JojFv2ZeTY5-T-146" value="车道宽度" style="rounded=0;whiteSpace=wrap;html=1;" vertex="1" parent="1">
          <mxGeometry x="1848" y="159" width="120" height="30" as="geometry" />
        </mxCell>
        <mxCell id="H7W7E83JojFv2ZeTY5-T-147" value="车道线宽度" style="rounded=0;whiteSpace=wrap;html=1;fillColor=#FF0000;" vertex="1" parent="1">
          <mxGeometry x="1848" y="200" width="120" height="30" as="geometry" />
        </mxCell>
        <mxCell id="H7W7E83JojFv2ZeTY5-T-148" value="车道线类型识别" style="rounded=0;whiteSpace=wrap;html=1;fillColor=#FFFF00;" vertex="1" parent="1">
          <mxGeometry x="1230" y="180" width="120" height="40" as="geometry" />
        </mxCell>
        <mxCell id="H7W7E83JojFv2ZeTY5-T-149" value="车道线颜色" style="rounded=0;whiteSpace=wrap;html=1;" vertex="1" parent="1">
          <mxGeometry x="1849" y="241" width="120" height="30" as="geometry" />
        </mxCell>
        <mxCell id="H7W7E83JojFv2ZeTY5-T-150" value="车道线类型" style="rounded=0;whiteSpace=wrap;html=1;" vertex="1" parent="1">
          <mxGeometry x="1851" y="284" width="120" height="30" as="geometry" />
        </mxCell>
        <mxCell id="H7W7E83JojFv2ZeTY5-T-151" value="车道线质量" style="rounded=0;whiteSpace=wrap;html=1;fillColor=#FFFF00;" vertex="1" parent="1">
          <mxGeometry x="1851" y="324" width="120" height="30" as="geometry" />
        </mxCell>
        <mxCell id="H7W7E83JojFv2ZeTY5-T-152" value="Lane&amp;nbsp;" style="text;html=1;strokeColor=none;fillColor=none;align=center;verticalAlign=middle;whiteSpace=wrap;rounded=0;" vertex="1" parent="1">
          <mxGeometry x="1771" y="200" width="70" height="20" as="geometry" />
        </mxCell>
        <mxCell id="H7W7E83JojFv2ZeTY5-T-153" value="updated coefs" style="text;html=1;strokeColor=none;fillColor=none;align=center;verticalAlign=middle;whiteSpace=wrap;rounded=0;" vertex="1" parent="1">
          <mxGeometry x="1573" y="203" width="40" height="20" as="geometry" />
        </mxCell>
        <mxCell id="H7W7E83JojFv2ZeTY5-T-154" value="&lt;h1 style=&quot;font-size: 25px&quot;&gt;&lt;font style=&quot;font-size: 25px&quot; color=&quot;#ff0000&quot;&gt;备注&lt;/font&gt;&lt;/h1&gt;&lt;p style=&quot;font-size: 25px&quot;&gt;&lt;font style=&quot;font-size: 25px&quot; color=&quot;#ff0000&quot;&gt;1. 红色填充内容为功能目标增加内容，暂未进行过方案策划和实践；&lt;/font&gt;&lt;/p&gt;&lt;p style=&quot;font-size: 25px&quot;&gt;&lt;font style=&quot;font-size: 25px&quot; color=&quot;#ff0000&quot;&gt;2. 黄色填充内容为进行过简单方案策划和实践，需要进一步改善；&lt;/font&gt;&lt;/p&gt;&lt;p style=&quot;font-size: 25px&quot;&gt;&lt;font style=&quot;font-size: 25px&quot; color=&quot;#ff0000&quot;&gt;3. 绿色填充内容为冗余处理；&lt;/font&gt;&lt;/p&gt;" style="text;html=1;strokeColor=none;fillColor=none;spacing=5;spacingTop=-20;whiteSpace=wrap;overflow=hidden;rounded=0;" vertex="1" parent="1">
          <mxGeometry x="1560" y="460" width="430" height="330" as="geometry" />
        </mxCell>
      </root>
    </mxGraphModel>
  </diagram>
  <diagram id="OLalbrC-j_oRMpUqDN2w" name="障碍物检测">
    <mxGraphModel dx="1038" dy="495" grid="1" gridSize="10" guides="1" tooltips="1" connect="1" arrows="1" fold="1" page="1" pageScale="1" pageWidth="827" pageHeight="1169" math="0" shadow="0">
      <root>
        <mxCell id="UPlCOH2j74Vt2fCVQCUx-0" />
        <mxCell id="UPlCOH2j74Vt2fCVQCUx-1" parent="UPlCOH2j74Vt2fCVQCUx-0" />
      </root>
    </mxGraphModel>
  </diagram>
  <diagram id="ju0tlDxFQ6zgH7UntKb1" name="多传感器融合">
    <mxGraphModel dx="1038" dy="495" grid="1" gridSize="10" guides="1" tooltips="1" connect="1" arrows="1" fold="1" page="1" pageScale="1" pageWidth="827" pageHeight="1169" math="0" shadow="0">
      <root>
        <mxCell id="crU_J5dLwCAiu_Ir3LPf-0" />
        <mxCell id="crU_J5dLwCAiu_Ir3LPf-1" parent="crU_J5dLwCAiu_Ir3LPf-0" />
      </root>
    </mxGraphModel>
  </diagram>
  <diagram id="tOY8CpyhBFpcaZT0mGBY" name="感知融合框架">
    <mxGraphModel dx="5190" dy="3644" grid="1" gridSize="10" guides="1" tooltips="1" connect="1" arrows="1" fold="1" page="1" pageScale="1" pageWidth="827" pageHeight="1169" math="0" shadow="0">
      <root>
        <mxCell id="qrQe8VKDjoJQSSapWJR--0" />
        <mxCell id="qrQe8VKDjoJQSSapWJR--1" parent="qrQe8VKDjoJQSSapWJR--0" />
        <mxCell id="qrQe8VKDjoJQSSapWJR--2" value="x" style="group;fillColor=#f5f5f5;strokeColor=#666666;fontColor=#333333;" vertex="1" connectable="0" parent="qrQe8VKDjoJQSSapWJR--1">
          <mxGeometry x="70" y="-30" width="460" height="200" as="geometry" />
        </mxCell>
        <mxCell id="qrQe8VKDjoJQSSapWJR--3" value="" style="rounded=0;whiteSpace=wrap;html=1;fillColor=#bac8d3;strokeColor=#23445d;" vertex="1" parent="qrQe8VKDjoJQSSapWJR--2">
          <mxGeometry width="460" height="200" as="geometry" />
        </mxCell>
        <mxCell id="qrQe8VKDjoJQSSapWJR--4" value="GPS/IMU" style="rounded=0;whiteSpace=wrap;html=1;fillColor=#f9f7ed;strokeColor=#36393d;" vertex="1" parent="qrQe8VKDjoJQSSapWJR--2">
          <mxGeometry x="10" y="50" width="120" height="60" as="geometry" />
        </mxCell>
        <mxCell id="qrQe8VKDjoJQSSapWJR--5" value="相机" style="rounded=0;whiteSpace=wrap;html=1;fillColor=#f9f7ed;strokeColor=#36393d;" vertex="1" parent="qrQe8VKDjoJQSSapWJR--2">
          <mxGeometry x="170" y="50" width="120" height="60" as="geometry" />
        </mxCell>
        <mxCell id="qrQe8VKDjoJQSSapWJR--6" value="毫米波雷达" style="rounded=0;whiteSpace=wrap;html=1;fillColor=#f9f7ed;strokeColor=#36393d;" vertex="1" parent="qrQe8VKDjoJQSSapWJR--2">
          <mxGeometry x="10" y="120" width="120" height="60" as="geometry" />
        </mxCell>
        <mxCell id="qrQe8VKDjoJQSSapWJR--7" value="激光雷达" style="rounded=0;whiteSpace=wrap;html=1;fillColor=#f9f7ed;strokeColor=#36393d;" vertex="1" parent="qrQe8VKDjoJQSSapWJR--2">
          <mxGeometry x="170" y="120" width="120" height="60" as="geometry" />
        </mxCell>
        <mxCell id="qrQe8VKDjoJQSSapWJR--8" value="标定" style="rounded=0;whiteSpace=wrap;html=1;fillColor=#f9f7ed;strokeColor=#36393d;" vertex="1" parent="qrQe8VKDjoJQSSapWJR--2">
          <mxGeometry x="320" y="50" width="120" height="60" as="geometry" />
        </mxCell>
        <mxCell id="qrQe8VKDjoJQSSapWJR--9" value="融合定位" style="rounded=0;whiteSpace=wrap;html=1;fillColor=#f9f7ed;strokeColor=#36393d;" vertex="1" parent="qrQe8VKDjoJQSSapWJR--2">
          <mxGeometry x="320" y="120" width="120" height="60" as="geometry" />
        </mxCell>
        <mxCell id="qrQe8VKDjoJQSSapWJR--10" value="&lt;h1&gt;传感&lt;/h1&gt;" style="text;html=1;strokeColor=none;fillColor=none;align=center;verticalAlign=middle;whiteSpace=wrap;rounded=0;" vertex="1" parent="qrQe8VKDjoJQSSapWJR--2">
          <mxGeometry y="10" width="70" height="20" as="geometry" />
        </mxCell>
        <mxCell id="qrQe8VKDjoJQSSapWJR--11" value="" style="group;fillColor=none;" vertex="1" connectable="0" parent="qrQe8VKDjoJQSSapWJR--1">
          <mxGeometry x="543.06" y="-30" width="406.94000000000005" height="430" as="geometry" />
        </mxCell>
        <mxCell id="qrQe8VKDjoJQSSapWJR--12" value="" style="rounded=0;whiteSpace=wrap;html=1;fillColor=#bac8d3;strokeColor=#23445d;" vertex="1" parent="qrQe8VKDjoJQSSapWJR--11">
          <mxGeometry width="406.94" height="430" as="geometry" />
        </mxCell>
        <mxCell id="qrQe8VKDjoJQSSapWJR--13" value="&lt;div align=&quot;center&quot;&gt;时&lt;/div&gt;&lt;div align=&quot;center&quot;&gt;空&lt;/div&gt;&lt;div align=&quot;center&quot;&gt;配&lt;/div&gt;&lt;div align=&quot;center&quot;&gt;准&lt;/div&gt;&lt;div align=&quot;center&quot;&gt;运&lt;/div&gt;&lt;div align=&quot;center&quot;&gt;动&lt;/div&gt;&lt;div align=&quot;center&quot;&gt;补&lt;/div&gt;&lt;div align=&quot;center&quot;&gt;偿&lt;/div&gt;" style="rounded=0;whiteSpace=wrap;html=1;fillColor=#f9f7ed;strokeColor=#36393d;align=center;" vertex="1" parent="qrQe8VKDjoJQSSapWJR--11">
          <mxGeometry x="9.870000000000005" y="60" width="37.07" height="340" as="geometry" />
        </mxCell>
        <mxCell id="qrQe8VKDjoJQSSapWJR--14" value="&lt;h1&gt;融合&lt;/h1&gt;" style="text;html=1;strokeColor=none;fillColor=none;align=center;verticalAlign=middle;whiteSpace=wrap;rounded=0;" vertex="1" parent="qrQe8VKDjoJQSSapWJR--11">
          <mxGeometry x="9.865034013605396" y="10" width="69.04761904761905" height="20" as="geometry" />
        </mxCell>
        <mxCell id="qrQe8VKDjoJQSSapWJR--15" value="&lt;div align=&quot;center&quot;&gt;航&lt;/div&gt;&lt;div align=&quot;center&quot;&gt;迹&lt;/div&gt;&lt;div align=&quot;center&quot;&gt;关&lt;/div&gt;&lt;div align=&quot;center&quot;&gt;联&lt;br&gt;&lt;/div&gt;" style="rounded=0;whiteSpace=wrap;html=1;fillColor=#f9f7ed;strokeColor=#36393d;align=center;" vertex="1" parent="qrQe8VKDjoJQSSapWJR--11">
          <mxGeometry x="66.94000000000005" y="60" width="37.07" height="340" as="geometry" />
        </mxCell>
        <mxCell id="qrQe8VKDjoJQSSapWJR--16" value="&lt;div align=&quot;center&quot;&gt;航&lt;/div&gt;&lt;div align=&quot;center&quot;&gt;迹&lt;/div&gt;&lt;div align=&quot;center&quot;&gt;融&lt;/div&gt;&lt;div align=&quot;center&quot;&gt;合&lt;br&gt;&lt;/div&gt;" style="rounded=0;whiteSpace=wrap;html=1;fillColor=#f9f7ed;strokeColor=#36393d;align=center;" vertex="1" parent="qrQe8VKDjoJQSSapWJR--11">
          <mxGeometry x="126.94000000000005" y="60" width="37.07" height="340" as="geometry" />
        </mxCell>
        <mxCell id="qrQe8VKDjoJQSSapWJR--17" value="&lt;div align=&quot;center&quot;&gt;航&lt;/div&gt;&lt;div align=&quot;center&quot;&gt;迹&lt;/div&gt;&lt;div align=&quot;center&quot;&gt;管&lt;/div&gt;&lt;div align=&quot;center&quot;&gt;理&lt;br&gt;&lt;/div&gt;" style="rounded=0;whiteSpace=wrap;html=1;fillColor=#f9f7ed;strokeColor=#36393d;align=center;" vertex="1" parent="qrQe8VKDjoJQSSapWJR--11">
          <mxGeometry x="196.94000000000005" y="60" width="37.07" height="340" as="geometry" />
        </mxCell>
        <mxCell id="qrQe8VKDjoJQSSapWJR--18" value="&lt;div&gt;目&lt;/div&gt;&lt;div&gt;标&lt;/div&gt;&lt;div&gt;跟&lt;/div&gt;&lt;div&gt;踪&lt;/div&gt;&lt;div&gt;预&lt;/div&gt;&lt;div&gt;测&lt;/div&gt;" style="rounded=0;whiteSpace=wrap;html=1;fillColor=#f9f7ed;strokeColor=#36393d;align=center;" vertex="1" parent="qrQe8VKDjoJQSSapWJR--11">
          <mxGeometry x="266.94000000000005" y="60" width="37.07" height="340" as="geometry" />
        </mxCell>
        <mxCell id="qrQe8VKDjoJQSSapWJR--19" value="&lt;div&gt;车&lt;/div&gt;&lt;div&gt;周&lt;/div&gt;&lt;div&gt;环&lt;/div&gt;&lt;div&gt;境&lt;/div&gt;&lt;div&gt;重&lt;/div&gt;&lt;div&gt;建&lt;/div&gt;" style="rounded=0;whiteSpace=wrap;html=1;fillColor=#f9f7ed;strokeColor=#36393d;align=center;" vertex="1" parent="qrQe8VKDjoJQSSapWJR--11">
          <mxGeometry x="336.94000000000005" y="60" width="37.07" height="340" as="geometry" />
        </mxCell>
        <mxCell id="qrQe8VKDjoJQSSapWJR--20" value="" style="group" vertex="1" connectable="0" parent="qrQe8VKDjoJQSSapWJR--1">
          <mxGeometry x="70" y="180" width="460" height="220" as="geometry" />
        </mxCell>
        <mxCell id="qrQe8VKDjoJQSSapWJR--21" value="" style="rounded=0;whiteSpace=wrap;html=1;fillColor=#bac8d3;strokeColor=#23445d;" vertex="1" parent="qrQe8VKDjoJQSSapWJR--20">
          <mxGeometry width="460" height="220" as="geometry" />
        </mxCell>
        <mxCell id="qrQe8VKDjoJQSSapWJR--22" value="视觉障碍物识别" style="rounded=0;whiteSpace=wrap;html=1;fillColor=#f9f7ed;strokeColor=#36393d;" vertex="1" parent="qrQe8VKDjoJQSSapWJR--20">
          <mxGeometry x="9.45578231292518" y="50" width="118.36734693877551" height="60" as="geometry" />
        </mxCell>
        <mxCell id="qrQe8VKDjoJQSSapWJR--23" value="视觉车道线识别" style="rounded=0;whiteSpace=wrap;html=1;fillColor=#f9f7ed;strokeColor=#36393d;" vertex="1" parent="qrQe8VKDjoJQSSapWJR--20">
          <mxGeometry x="167.27891156462584" y="50" width="118.36734693877551" height="60" as="geometry" />
        </mxCell>
        <mxCell id="qrQe8VKDjoJQSSapWJR--24" value="视觉测距" style="rounded=0;whiteSpace=wrap;html=1;fillColor=#f9f7ed;strokeColor=#36393d;" vertex="1" parent="qrQe8VKDjoJQSSapWJR--20">
          <mxGeometry x="325.1020408163265" y="50" width="118.36734693877551" height="60" as="geometry" />
        </mxCell>
        <mxCell id="qrQe8VKDjoJQSSapWJR--25" value="激光可行驶区域" style="rounded=0;whiteSpace=wrap;html=1;fillColor=#f9f7ed;strokeColor=#36393d;" vertex="1" parent="qrQe8VKDjoJQSSapWJR--20">
          <mxGeometry x="167.27891156462584" y="130" width="118.36734693877551" height="60" as="geometry" />
        </mxCell>
        <mxCell id="qrQe8VKDjoJQSSapWJR--26" value="激光障碍物识别" style="rounded=0;whiteSpace=wrap;html=1;fillColor=#f9f7ed;strokeColor=#36393d;" vertex="1" parent="qrQe8VKDjoJQSSapWJR--20">
          <mxGeometry x="9.45578231292518" y="130" width="118.36734693877551" height="60" as="geometry" />
        </mxCell>
        <mxCell id="qrQe8VKDjoJQSSapWJR--27" value="激光高精度地图构建" style="rounded=0;whiteSpace=wrap;html=1;fillColor=#f9f7ed;strokeColor=#36393d;" vertex="1" parent="qrQe8VKDjoJQSSapWJR--20">
          <mxGeometry x="325.1020408163265" y="130" width="118.36734693877551" height="60" as="geometry" />
        </mxCell>
        <mxCell id="qrQe8VKDjoJQSSapWJR--28" value="&lt;h1&gt;感知&lt;/h1&gt;" style="text;html=1;strokeColor=none;fillColor=none;align=center;verticalAlign=middle;whiteSpace=wrap;rounded=0;" vertex="1" parent="qrQe8VKDjoJQSSapWJR--20">
          <mxGeometry x="9.45578231292518" y="20" width="69.04761904761905" height="20" as="geometry" />
        </mxCell>
        <mxCell id="qrQe8VKDjoJQSSapWJR--29" value="" style="group" vertex="1" connectable="0" parent="qrQe8VKDjoJQSSapWJR--1">
          <mxGeometry x="80" y="445" width="1530" height="690" as="geometry" />
        </mxCell>
        <mxCell id="qrQe8VKDjoJQSSapWJR--30" value="" style="rounded=0;whiteSpace=wrap;html=1;fillColor=#bac8d3;strokeColor=#23445d;" vertex="1" parent="qrQe8VKDjoJQSSapWJR--29">
          <mxGeometry x="20" y="-5" width="1530" height="690" as="geometry" />
        </mxCell>
        <mxCell id="qrQe8VKDjoJQSSapWJR--31" value="&lt;div&gt;结&lt;/div&gt;&lt;div&gt;构&lt;/div&gt;&lt;div&gt;化&lt;/div&gt;&lt;div&gt;输&lt;/div&gt;&lt;div&gt;入&lt;/div&gt;" style="rounded=0;whiteSpace=wrap;html=1;fillColor=#f9f7ed;strokeColor=#36393d;" vertex="1" parent="qrQe8VKDjoJQSSapWJR--29">
          <mxGeometry x="40" y="200" width="40" height="280" as="geometry" />
        </mxCell>
        <mxCell id="qrQe8VKDjoJQSSapWJR--32" value="&lt;div&gt;预&lt;/div&gt;&lt;div&gt;处&lt;/div&gt;&lt;div&gt;理&lt;/div&gt;" style="rounded=0;whiteSpace=wrap;html=1;fillColor=#f9f7ed;strokeColor=#36393d;" vertex="1" parent="qrQe8VKDjoJQSSapWJR--29">
          <mxGeometry x="120" y="200" width="40" height="280" as="geometry" />
        </mxCell>
        <mxCell id="qrQe8VKDjoJQSSapWJR--33" value="&lt;div&gt;时&lt;/div&gt;&lt;div&gt;空&lt;/div&gt;&lt;div&gt;配&lt;/div&gt;&lt;div&gt;准&lt;/div&gt;" style="rounded=0;whiteSpace=wrap;html=1;fillColor=#f9f7ed;strokeColor=#36393d;" vertex="1" parent="qrQe8VKDjoJQSSapWJR--29">
          <mxGeometry x="200" y="200" width="40" height="280" as="geometry" />
        </mxCell>
        <mxCell id="qrQe8VKDjoJQSSapWJR--34" value="&lt;div&gt;运&lt;/div&gt;&lt;div&gt;动&lt;/div&gt;&lt;div&gt;补&lt;/div&gt;&lt;div&gt;偿&lt;/div&gt;" style="rounded=0;whiteSpace=wrap;html=1;fillColor=#f9f7ed;strokeColor=#36393d;" vertex="1" parent="qrQe8VKDjoJQSSapWJR--29">
          <mxGeometry x="281" y="200" width="39" height="280" as="geometry" />
        </mxCell>
        <mxCell id="qrQe8VKDjoJQSSapWJR--35" value="&lt;div&gt;格&lt;/div&gt;&lt;div&gt;式&lt;/div&gt;&lt;div&gt;化&lt;/div&gt;&lt;div&gt;输&lt;/div&gt;&lt;div&gt;出&lt;/div&gt;" style="rounded=0;whiteSpace=wrap;html=1;fillColor=#f9f7ed;strokeColor=#36393d;" vertex="1" parent="qrQe8VKDjoJQSSapWJR--29">
          <mxGeometry x="1440" y="160" width="40" height="300" as="geometry" />
        </mxCell>
        <mxCell id="qrQe8VKDjoJQSSapWJR--36" value="" style="group;fillColor=#f9f7ed;strokeColor=#36393d;" vertex="1" connectable="0" parent="qrQe8VKDjoJQSSapWJR--29">
          <mxGeometry x="360" y="350" width="160" height="290" as="geometry" />
        </mxCell>
        <mxCell id="qrQe8VKDjoJQSSapWJR--37" value="车道线状态判定" style="rounded=0;whiteSpace=wrap;html=1;" vertex="1" parent="qrQe8VKDjoJQSSapWJR--36">
          <mxGeometry x="20" y="41.42857142857143" width="120" height="62.142857142857146" as="geometry" />
        </mxCell>
        <mxCell id="qrQe8VKDjoJQSSapWJR--38" value="车道线跟踪与预测" style="rounded=0;whiteSpace=wrap;html=1;" vertex="1" parent="qrQe8VKDjoJQSSapWJR--36">
          <mxGeometry x="20" y="124.28571428571429" width="120" height="62.142857142857146" as="geometry" />
        </mxCell>
        <mxCell id="qrQe8VKDjoJQSSapWJR--39" value="车道线质量管理" style="rounded=0;whiteSpace=wrap;html=1;" vertex="1" parent="qrQe8VKDjoJQSSapWJR--36">
          <mxGeometry x="20" y="207.14285714285717" width="120" height="62.142857142857146" as="geometry" />
        </mxCell>
        <mxCell id="qrQe8VKDjoJQSSapWJR--40" value="&lt;h1&gt;车道线模块&lt;/h1&gt;" style="text;html=1;strokeColor=none;fillColor=none;align=center;verticalAlign=middle;whiteSpace=wrap;rounded=0;" vertex="1" parent="qrQe8VKDjoJQSSapWJR--36">
          <mxGeometry x="20" y="10.357142857142858" width="130" height="20.714285714285715" as="geometry" />
        </mxCell>
        <mxCell id="qrQe8VKDjoJQSSapWJR--41" value="" style="group;fillColor=#f9f7ed;strokeColor=#36393d;" vertex="1" connectable="0" parent="qrQe8VKDjoJQSSapWJR--29">
          <mxGeometry x="1240" y="160" width="160" height="290" as="geometry" />
        </mxCell>
        <mxCell id="qrQe8VKDjoJQSSapWJR--42" value="" style="rounded=0;whiteSpace=wrap;html=1;fillColor=#f9f7ed;strokeColor=#36393d;" vertex="1" parent="qrQe8VKDjoJQSSapWJR--41">
          <mxGeometry width="160" height="290" as="geometry" />
        </mxCell>
        <mxCell id="qrQe8VKDjoJQSSapWJR--43" value="融合模式选择" style="rounded=0;whiteSpace=wrap;html=1;" vertex="1" parent="qrQe8VKDjoJQSSapWJR--41">
          <mxGeometry x="20" y="50" width="120" height="60" as="geometry" />
        </mxCell>
        <mxCell id="qrQe8VKDjoJQSSapWJR--44" value="车道线内航迹分类" style="rounded=0;whiteSpace=wrap;html=1;" vertex="1" parent="qrQe8VKDjoJQSSapWJR--41">
          <mxGeometry x="20" y="130" width="120" height="60" as="geometry" />
        </mxCell>
        <mxCell id="qrQe8VKDjoJQSSapWJR--45" value="系统航迹选择" style="rounded=0;whiteSpace=wrap;html=1;" vertex="1" parent="qrQe8VKDjoJQSSapWJR--41">
          <mxGeometry x="20" y="215" width="120" height="60" as="geometry" />
        </mxCell>
        <mxCell id="qrQe8VKDjoJQSSapWJR--46" value="航迹与车道线融合" style="text;html=1;strokeColor=none;fillColor=none;align=center;verticalAlign=middle;whiteSpace=wrap;rounded=0;" vertex="1" parent="qrQe8VKDjoJQSSapWJR--41">
          <mxGeometry x="30" y="20" width="100" height="20" as="geometry" />
        </mxCell>
        <mxCell id="qrQe8VKDjoJQSSapWJR--47" value="" style="group;fillColor=#f9f7ed;strokeColor=#36393d;" vertex="1" connectable="0" parent="qrQe8VKDjoJQSSapWJR--29">
          <mxGeometry x="360" y="30" width="160" height="300" as="geometry" />
        </mxCell>
        <mxCell id="qrQe8VKDjoJQSSapWJR--48" value="" style="rounded=0;whiteSpace=wrap;html=1;fillColor=#f9f7ed;strokeColor=#36393d;" vertex="1" parent="qrQe8VKDjoJQSSapWJR--47">
          <mxGeometry width="160" height="300" as="geometry" />
        </mxCell>
        <mxCell id="qrQe8VKDjoJQSSapWJR--49" value="局部航迹形成" style="rounded=0;whiteSpace=wrap;html=1;" vertex="1" parent="qrQe8VKDjoJQSSapWJR--47">
          <mxGeometry x="20" y="60" width="120" height="60" as="geometry" />
        </mxCell>
        <mxCell id="qrQe8VKDjoJQSSapWJR--50" value="关联质量设计" style="rounded=0;whiteSpace=wrap;html=1;" vertex="1" parent="qrQe8VKDjoJQSSapWJR--47">
          <mxGeometry x="20" y="140" width="120" height="60" as="geometry" />
        </mxCell>
        <mxCell id="qrQe8VKDjoJQSSapWJR--51" value="关联判决形成" style="rounded=0;whiteSpace=wrap;html=1;" vertex="1" parent="qrQe8VKDjoJQSSapWJR--47">
          <mxGeometry x="20" y="220" width="120" height="60" as="geometry" />
        </mxCell>
        <mxCell id="qrQe8VKDjoJQSSapWJR--52" value="&lt;h1&gt;局部航迹管理&lt;/h1&gt;" style="text;html=1;strokeColor=none;fillColor=none;align=center;verticalAlign=middle;whiteSpace=wrap;rounded=0;" vertex="1" parent="qrQe8VKDjoJQSSapWJR--47">
          <mxGeometry y="20" width="160" height="20" as="geometry" />
        </mxCell>
        <mxCell id="qrQe8VKDjoJQSSapWJR--53" value="" style="group" vertex="1" connectable="0" parent="qrQe8VKDjoJQSSapWJR--29">
          <mxGeometry x="560" y="70" width="640" height="520" as="geometry" />
        </mxCell>
        <mxCell id="qrQe8VKDjoJQSSapWJR--54" value="" style="group;fillColor=#f9f7ed;strokeColor=#36393d;container=0;" vertex="1" connectable="0" parent="qrQe8VKDjoJQSSapWJR--53">
          <mxGeometry width="640" height="520" as="geometry" />
        </mxCell>
        <mxCell id="qrQe8VKDjoJQSSapWJR--55" value="" style="group;fillColor=#f5f5f5;strokeColor=#666666;fontColor=#333333;" vertex="1" connectable="0" parent="qrQe8VKDjoJQSSapWJR--53">
          <mxGeometry x="440" y="85" width="160" height="360" as="geometry" />
        </mxCell>
        <mxCell id="qrQe8VKDjoJQSSapWJR--56" value="系统航迹预测" style="rounded=0;whiteSpace=wrap;html=1;" vertex="1" parent="qrQe8VKDjoJQSSapWJR--55">
          <mxGeometry x="10.666666666666666" y="212.30769230769232" width="128" height="55.38461538461539" as="geometry" />
        </mxCell>
        <mxCell id="qrQe8VKDjoJQSSapWJR--57" value="系统航迹形成" style="rounded=0;whiteSpace=wrap;html=1;" vertex="1" parent="qrQe8VKDjoJQSSapWJR--55">
          <mxGeometry x="10.666666666666666" y="64.61538461538461" width="128" height="55.38461538461539" as="geometry" />
        </mxCell>
        <mxCell id="qrQe8VKDjoJQSSapWJR--58" value="系统航迹更新" style="rounded=0;whiteSpace=wrap;html=1;" vertex="1" parent="qrQe8VKDjoJQSSapWJR--55">
          <mxGeometry x="10.666666666666666" y="138.46153846153848" width="128" height="55.38461538461539" as="geometry" />
        </mxCell>
        <mxCell id="qrQe8VKDjoJQSSapWJR--59" value="系统航迹终止" style="rounded=0;whiteSpace=wrap;html=1;" vertex="1" parent="qrQe8VKDjoJQSSapWJR--55">
          <mxGeometry x="10.666666666666666" y="286.1538461538462" width="128" height="55.38461538461539" as="geometry" />
        </mxCell>
        <mxCell id="qrQe8VKDjoJQSSapWJR--60" value="系统航迹管理" style="text;html=1;strokeColor=none;fillColor=none;align=center;verticalAlign=middle;whiteSpace=wrap;rounded=0;" vertex="1" parent="qrQe8VKDjoJQSSapWJR--55">
          <mxGeometry x="26.666666666666668" y="27.692307692307693" width="96" height="18.461538461538463" as="geometry" />
        </mxCell>
        <mxCell id="qrQe8VKDjoJQSSapWJR--61" value="" style="group" vertex="1" connectable="0" parent="qrQe8VKDjoJQSSapWJR--53">
          <mxGeometry x="240" y="130" width="160" height="320" as="geometry" />
        </mxCell>
        <mxCell id="qrQe8VKDjoJQSSapWJR--62" value="" style="rounded=0;whiteSpace=wrap;html=1;fillColor=#f5f5f5;strokeColor=#666666;fontColor=#333333;" vertex="1" parent="qrQe8VKDjoJQSSapWJR--61">
          <mxGeometry width="160" height="320" as="geometry" />
        </mxCell>
        <mxCell id="qrQe8VKDjoJQSSapWJR--63" value="航迹融合逻辑设计" style="rounded=0;whiteSpace=wrap;html=1;" vertex="1" parent="qrQe8VKDjoJQSSapWJR--61">
          <mxGeometry x="11.428571428571427" y="75.42087542087542" width="137.14285714285714" height="64.64646464646465" as="geometry" />
        </mxCell>
        <mxCell id="qrQe8VKDjoJQSSapWJR--64" value="航迹融合算法设计" style="rounded=0;whiteSpace=wrap;html=1;" vertex="1" parent="qrQe8VKDjoJQSSapWJR--61">
          <mxGeometry x="11.428571428571427" y="161.6161616161616" width="137.14285714285714" height="64.64646464646465" as="geometry" />
        </mxCell>
        <mxCell id="qrQe8VKDjoJQSSapWJR--65" value="航迹融合质量评价" style="rounded=0;whiteSpace=wrap;html=1;" vertex="1" parent="qrQe8VKDjoJQSSapWJR--61">
          <mxGeometry x="11.428571428571427" y="247.8114478114478" width="137.14285714285714" height="64.64646464646465" as="geometry" />
        </mxCell>
        <mxCell id="qrQe8VKDjoJQSSapWJR--66" value="航迹融合" style="text;html=1;strokeColor=none;fillColor=none;align=center;verticalAlign=middle;whiteSpace=wrap;rounded=0;" vertex="1" parent="qrQe8VKDjoJQSSapWJR--61">
          <mxGeometry x="51.42857142857142" y="43.0976430976431" width="57.14285714285714" height="21.54882154882155" as="geometry" />
        </mxCell>
        <mxCell id="qrQe8VKDjoJQSSapWJR--67" value="" style="group" vertex="1" connectable="0" parent="qrQe8VKDjoJQSSapWJR--53">
          <mxGeometry x="40" y="80" width="160" height="365" as="geometry" />
        </mxCell>
        <mxCell id="qrQe8VKDjoJQSSapWJR--68" value="" style="rounded=0;whiteSpace=wrap;html=1;fillColor=#f5f5f5;strokeColor=#666666;fontColor=#333333;" vertex="1" parent="qrQe8VKDjoJQSSapWJR--67">
          <mxGeometry y="50" width="160" height="315" as="geometry" />
        </mxCell>
        <mxCell id="qrQe8VKDjoJQSSapWJR--69" value="确定关联准则" style="rounded=0;whiteSpace=wrap;html=1;" vertex="1" parent="qrQe8VKDjoJQSSapWJR--67">
          <mxGeometry x="11.347517730496454" y="104.28571428571429" width="136.17021276595744" height="69.52380952380953" as="geometry" />
        </mxCell>
        <mxCell id="qrQe8VKDjoJQSSapWJR--70" value="关联质量设计" style="rounded=0;whiteSpace=wrap;html=1;" vertex="1" parent="qrQe8VKDjoJQSSapWJR--67">
          <mxGeometry x="11.347517730496454" y="196.984126984127" width="136.17021276595744" height="69.52380952380953" as="geometry" />
        </mxCell>
        <mxCell id="qrQe8VKDjoJQSSapWJR--71" value="关联判决形成" style="rounded=0;whiteSpace=wrap;html=1;" vertex="1" parent="qrQe8VKDjoJQSSapWJR--67">
          <mxGeometry x="11.347517730496454" y="289.6825396825397" width="136.17021276595744" height="69.52380952380953" as="geometry" />
        </mxCell>
        <mxCell id="qrQe8VKDjoJQSSapWJR--72" value="航迹关联" style="text;html=1;strokeColor=none;fillColor=none;align=center;verticalAlign=middle;whiteSpace=wrap;rounded=0;" vertex="1" parent="qrQe8VKDjoJQSSapWJR--67">
          <mxGeometry x="44.255319148936174" y="57.936507936507944" width="71.48936170212767" height="23.174603174603178" as="geometry" />
        </mxCell>
        <mxCell id="qrQe8VKDjoJQSSapWJR--73" value="&lt;h1&gt;融合中心&lt;/h1&gt;" style="text;html=1;strokeColor=none;fillColor=none;align=center;verticalAlign=middle;whiteSpace=wrap;rounded=0;" vertex="1" parent="qrQe8VKDjoJQSSapWJR--53">
          <mxGeometry x="280" y="20" width="150" height="28.64" as="geometry" />
        </mxCell>
        <mxCell id="qrQe8VKDjoJQSSapWJR--74" value="x" style="group;fillColor=#f5f5f5;strokeColor=#666666;fontColor=#333333;" vertex="1" connectable="0" parent="qrQe8VKDjoJQSSapWJR--1">
          <mxGeometry x="110" y="1180" width="460" height="200" as="geometry" />
        </mxCell>
        <mxCell id="qrQe8VKDjoJQSSapWJR--75" value="" style="rounded=0;whiteSpace=wrap;html=1;fillColor=#bac8d3;strokeColor=#23445d;" vertex="1" parent="qrQe8VKDjoJQSSapWJR--74">
          <mxGeometry width="460" height="200" as="geometry" />
        </mxCell>
        <mxCell id="qrQe8VKDjoJQSSapWJR--76" value="GPS/IMU" style="rounded=0;whiteSpace=wrap;html=1;fillColor=#f9f7ed;strokeColor=#36393d;" vertex="1" parent="qrQe8VKDjoJQSSapWJR--74">
          <mxGeometry x="10" y="50" width="120" height="60" as="geometry" />
        </mxCell>
        <mxCell id="qrQe8VKDjoJQSSapWJR--77" value="相机" style="rounded=0;whiteSpace=wrap;html=1;fillColor=#f9f7ed;strokeColor=#36393d;" vertex="1" parent="qrQe8VKDjoJQSSapWJR--74">
          <mxGeometry x="170" y="50" width="120" height="60" as="geometry" />
        </mxCell>
        <mxCell id="qrQe8VKDjoJQSSapWJR--78" value="毫米波雷达" style="rounded=0;whiteSpace=wrap;html=1;fillColor=#f9f7ed;strokeColor=#36393d;" vertex="1" parent="qrQe8VKDjoJQSSapWJR--74">
          <mxGeometry x="10" y="120" width="120" height="60" as="geometry" />
        </mxCell>
        <mxCell id="qrQe8VKDjoJQSSapWJR--79" value="激光雷达" style="rounded=0;whiteSpace=wrap;html=1;fillColor=#f9f7ed;strokeColor=#36393d;" vertex="1" parent="qrQe8VKDjoJQSSapWJR--74">
          <mxGeometry x="170" y="120" width="120" height="60" as="geometry" />
        </mxCell>
        <mxCell id="qrQe8VKDjoJQSSapWJR--80" value="标定" style="rounded=0;whiteSpace=wrap;html=1;fillColor=#f9f7ed;strokeColor=#36393d;" vertex="1" parent="qrQe8VKDjoJQSSapWJR--74">
          <mxGeometry x="320" y="50" width="120" height="60" as="geometry" />
        </mxCell>
        <mxCell id="qrQe8VKDjoJQSSapWJR--81" value="融合定位" style="rounded=0;whiteSpace=wrap;html=1;fillColor=#f9f7ed;strokeColor=#36393d;" vertex="1" parent="qrQe8VKDjoJQSSapWJR--74">
          <mxGeometry x="320" y="120" width="120" height="60" as="geometry" />
        </mxCell>
        <mxCell id="qrQe8VKDjoJQSSapWJR--82" value="&lt;h1&gt;传感&lt;/h1&gt;" style="text;html=1;strokeColor=none;fillColor=none;align=center;verticalAlign=middle;whiteSpace=wrap;rounded=0;" vertex="1" parent="qrQe8VKDjoJQSSapWJR--74">
          <mxGeometry y="10" width="70" height="20" as="geometry" />
        </mxCell>
        <mxCell id="qrQe8VKDjoJQSSapWJR--83" value="" style="group;fillColor=none;" vertex="1" connectable="0" parent="qrQe8VKDjoJQSSapWJR--1">
          <mxGeometry x="583.06" y="1180" width="406.94000000000005" height="430" as="geometry" />
        </mxCell>
        <mxCell id="qrQe8VKDjoJQSSapWJR--84" value="" style="rounded=0;whiteSpace=wrap;html=1;fillColor=#bac8d3;strokeColor=#23445d;" vertex="1" parent="qrQe8VKDjoJQSSapWJR--83">
          <mxGeometry width="406.94" height="430" as="geometry" />
        </mxCell>
        <mxCell id="qrQe8VKDjoJQSSapWJR--85" value="&lt;div align=&quot;center&quot;&gt;时&lt;/div&gt;&lt;div align=&quot;center&quot;&gt;空&lt;/div&gt;&lt;div align=&quot;center&quot;&gt;配&lt;/div&gt;&lt;div align=&quot;center&quot;&gt;准&lt;/div&gt;&lt;div align=&quot;center&quot;&gt;运&lt;/div&gt;&lt;div align=&quot;center&quot;&gt;动&lt;/div&gt;&lt;div align=&quot;center&quot;&gt;补&lt;/div&gt;&lt;div align=&quot;center&quot;&gt;偿&lt;/div&gt;" style="rounded=0;whiteSpace=wrap;html=1;fillColor=#f9f7ed;strokeColor=#36393d;align=center;" vertex="1" parent="qrQe8VKDjoJQSSapWJR--83">
          <mxGeometry x="9.870000000000005" y="60" width="37.07" height="340" as="geometry" />
        </mxCell>
        <mxCell id="qrQe8VKDjoJQSSapWJR--86" value="&lt;h1&gt;融合&lt;/h1&gt;" style="text;html=1;strokeColor=none;fillColor=none;align=center;verticalAlign=middle;whiteSpace=wrap;rounded=0;" vertex="1" parent="qrQe8VKDjoJQSSapWJR--83">
          <mxGeometry x="9.865034013605396" y="10" width="69.04761904761905" height="20" as="geometry" />
        </mxCell>
        <mxCell id="qrQe8VKDjoJQSSapWJR--87" value="&lt;div align=&quot;center&quot;&gt;航&lt;/div&gt;&lt;div align=&quot;center&quot;&gt;迹&lt;/div&gt;&lt;div align=&quot;center&quot;&gt;关&lt;/div&gt;&lt;div align=&quot;center&quot;&gt;联&lt;br&gt;&lt;/div&gt;" style="rounded=0;whiteSpace=wrap;html=1;fillColor=#f9f7ed;strokeColor=#36393d;align=center;" vertex="1" parent="qrQe8VKDjoJQSSapWJR--83">
          <mxGeometry x="66.94000000000005" y="60" width="37.07" height="340" as="geometry" />
        </mxCell>
        <mxCell id="qrQe8VKDjoJQSSapWJR--88" value="&lt;div align=&quot;center&quot;&gt;航&lt;/div&gt;&lt;div align=&quot;center&quot;&gt;迹&lt;/div&gt;&lt;div align=&quot;center&quot;&gt;融&lt;/div&gt;&lt;div align=&quot;center&quot;&gt;合&lt;br&gt;&lt;/div&gt;" style="rounded=0;whiteSpace=wrap;html=1;fillColor=#f9f7ed;strokeColor=#36393d;align=center;" vertex="1" parent="qrQe8VKDjoJQSSapWJR--83">
          <mxGeometry x="126.94000000000005" y="60" width="37.07" height="340" as="geometry" />
        </mxCell>
        <mxCell id="qrQe8VKDjoJQSSapWJR--89" value="&lt;div align=&quot;center&quot;&gt;航&lt;/div&gt;&lt;div align=&quot;center&quot;&gt;迹&lt;/div&gt;&lt;div align=&quot;center&quot;&gt;管&lt;/div&gt;&lt;div align=&quot;center&quot;&gt;理&lt;br&gt;&lt;/div&gt;" style="rounded=0;whiteSpace=wrap;html=1;fillColor=#f9f7ed;strokeColor=#36393d;align=center;" vertex="1" parent="qrQe8VKDjoJQSSapWJR--83">
          <mxGeometry x="196.94000000000005" y="60" width="37.07" height="340" as="geometry" />
        </mxCell>
        <mxCell id="qrQe8VKDjoJQSSapWJR--90" value="&lt;div&gt;目&lt;/div&gt;&lt;div&gt;标&lt;/div&gt;&lt;div&gt;跟&lt;/div&gt;&lt;div&gt;踪&lt;/div&gt;&lt;div&gt;预&lt;/div&gt;&lt;div&gt;测&lt;/div&gt;" style="rounded=0;whiteSpace=wrap;html=1;fillColor=#f9f7ed;strokeColor=#36393d;align=center;" vertex="1" parent="qrQe8VKDjoJQSSapWJR--83">
          <mxGeometry x="266.94000000000005" y="60" width="37.07" height="340" as="geometry" />
        </mxCell>
        <mxCell id="qrQe8VKDjoJQSSapWJR--91" value="&lt;div&gt;车&lt;/div&gt;&lt;div&gt;周&lt;/div&gt;&lt;div&gt;环&lt;/div&gt;&lt;div&gt;境&lt;/div&gt;&lt;div&gt;重&lt;/div&gt;&lt;div&gt;建&lt;/div&gt;" style="rounded=0;whiteSpace=wrap;html=1;fillColor=#f9f7ed;strokeColor=#36393d;align=center;" vertex="1" parent="qrQe8VKDjoJQSSapWJR--83">
          <mxGeometry x="336.94000000000005" y="60" width="37.07" height="340" as="geometry" />
        </mxCell>
        <mxCell id="qrQe8VKDjoJQSSapWJR--92" value="" style="group" vertex="1" connectable="0" parent="qrQe8VKDjoJQSSapWJR--1">
          <mxGeometry x="110" y="1390" width="460" height="220" as="geometry" />
        </mxCell>
        <mxCell id="qrQe8VKDjoJQSSapWJR--93" value="" style="rounded=0;whiteSpace=wrap;html=1;fillColor=#bac8d3;strokeColor=#23445d;" vertex="1" parent="qrQe8VKDjoJQSSapWJR--92">
          <mxGeometry width="460" height="220" as="geometry" />
        </mxCell>
        <mxCell id="qrQe8VKDjoJQSSapWJR--94" value="视觉障碍物识别" style="rounded=0;whiteSpace=wrap;html=1;fillColor=#f9f7ed;strokeColor=#36393d;" vertex="1" parent="qrQe8VKDjoJQSSapWJR--92">
          <mxGeometry x="9.45578231292518" y="50" width="118.36734693877551" height="60" as="geometry" />
        </mxCell>
        <mxCell id="qrQe8VKDjoJQSSapWJR--95" value="视觉车道线识别" style="rounded=0;whiteSpace=wrap;html=1;fillColor=#f9f7ed;strokeColor=#36393d;" vertex="1" parent="qrQe8VKDjoJQSSapWJR--92">
          <mxGeometry x="167.27891156462584" y="50" width="118.36734693877551" height="60" as="geometry" />
        </mxCell>
        <mxCell id="qrQe8VKDjoJQSSapWJR--96" value="视觉测距" style="rounded=0;whiteSpace=wrap;html=1;fillColor=#f9f7ed;strokeColor=#36393d;" vertex="1" parent="qrQe8VKDjoJQSSapWJR--92">
          <mxGeometry x="325.1020408163265" y="50" width="118.36734693877551" height="60" as="geometry" />
        </mxCell>
        <mxCell id="qrQe8VKDjoJQSSapWJR--97" value="激光可行驶区域" style="rounded=0;whiteSpace=wrap;html=1;fillColor=#f9f7ed;strokeColor=#36393d;" vertex="1" parent="qrQe8VKDjoJQSSapWJR--92">
          <mxGeometry x="167.27891156462584" y="130" width="118.36734693877551" height="60" as="geometry" />
        </mxCell>
        <mxCell id="qrQe8VKDjoJQSSapWJR--98" value="激光障碍物识别" style="rounded=0;whiteSpace=wrap;html=1;fillColor=#f9f7ed;strokeColor=#36393d;" vertex="1" parent="qrQe8VKDjoJQSSapWJR--92">
          <mxGeometry x="9.45578231292518" y="130" width="118.36734693877551" height="60" as="geometry" />
        </mxCell>
        <mxCell id="qrQe8VKDjoJQSSapWJR--99" value="激光高精度地图构建" style="rounded=0;whiteSpace=wrap;html=1;fillColor=#f9f7ed;strokeColor=#36393d;" vertex="1" parent="qrQe8VKDjoJQSSapWJR--92">
          <mxGeometry x="325.1020408163265" y="130" width="118.36734693877551" height="60" as="geometry" />
        </mxCell>
        <mxCell id="qrQe8VKDjoJQSSapWJR--100" value="&lt;h1&gt;感知&lt;/h1&gt;" style="text;html=1;strokeColor=none;fillColor=none;align=center;verticalAlign=middle;whiteSpace=wrap;rounded=0;" vertex="1" parent="qrQe8VKDjoJQSSapWJR--92">
          <mxGeometry x="9.45578231292518" y="20" width="69.04761904761905" height="20" as="geometry" />
        </mxCell>
        <mxCell id="qrQe8VKDjoJQSSapWJR--101" value="" style="group" vertex="1" connectable="0" parent="qrQe8VKDjoJQSSapWJR--1">
          <mxGeometry x="120" y="1655" width="1530" height="690" as="geometry" />
        </mxCell>
        <mxCell id="qrQe8VKDjoJQSSapWJR--102" value="" style="rounded=0;whiteSpace=wrap;html=1;fillColor=#bac8d3;strokeColor=#23445d;" vertex="1" parent="qrQe8VKDjoJQSSapWJR--101">
          <mxGeometry x="20" y="-5" width="1530" height="690" as="geometry" />
        </mxCell>
        <mxCell id="qrQe8VKDjoJQSSapWJR--103" value="&lt;div&gt;结&lt;/div&gt;&lt;div&gt;构&lt;/div&gt;&lt;div&gt;化&lt;/div&gt;&lt;div&gt;输&lt;/div&gt;&lt;div&gt;入&lt;/div&gt;" style="rounded=0;whiteSpace=wrap;html=1;fillColor=#f9f7ed;strokeColor=#36393d;" vertex="1" parent="qrQe8VKDjoJQSSapWJR--101">
          <mxGeometry x="40" y="200" width="40" height="280" as="geometry" />
        </mxCell>
        <mxCell id="qrQe8VKDjoJQSSapWJR--104" value="&lt;div&gt;预&lt;/div&gt;&lt;div&gt;处&lt;/div&gt;&lt;div&gt;理&lt;/div&gt;" style="rounded=0;whiteSpace=wrap;html=1;fillColor=#f9f7ed;strokeColor=#36393d;" vertex="1" parent="qrQe8VKDjoJQSSapWJR--101">
          <mxGeometry x="120" y="200" width="40" height="280" as="geometry" />
        </mxCell>
        <mxCell id="qrQe8VKDjoJQSSapWJR--105" value="&lt;div&gt;时&lt;/div&gt;&lt;div&gt;空&lt;/div&gt;&lt;div&gt;配&lt;/div&gt;&lt;div&gt;准&lt;/div&gt;" style="rounded=0;whiteSpace=wrap;html=1;fillColor=#f9f7ed;strokeColor=#36393d;" vertex="1" parent="qrQe8VKDjoJQSSapWJR--101">
          <mxGeometry x="200" y="200" width="40" height="280" as="geometry" />
        </mxCell>
        <mxCell id="qrQe8VKDjoJQSSapWJR--106" value="&lt;div&gt;运&lt;/div&gt;&lt;div&gt;动&lt;/div&gt;&lt;div&gt;补&lt;/div&gt;&lt;div&gt;偿&lt;/div&gt;" style="rounded=0;whiteSpace=wrap;html=1;fillColor=#f9f7ed;strokeColor=#36393d;" vertex="1" parent="qrQe8VKDjoJQSSapWJR--101">
          <mxGeometry x="281" y="200" width="39" height="280" as="geometry" />
        </mxCell>
        <mxCell id="qrQe8VKDjoJQSSapWJR--107" value="&lt;div&gt;格&lt;/div&gt;&lt;div&gt;式&lt;/div&gt;&lt;div&gt;化&lt;/div&gt;&lt;div&gt;输&lt;/div&gt;&lt;div&gt;出&lt;/div&gt;" style="rounded=0;whiteSpace=wrap;html=1;fillColor=#f9f7ed;strokeColor=#36393d;" vertex="1" parent="qrQe8VKDjoJQSSapWJR--101">
          <mxGeometry x="1440" y="160" width="40" height="300" as="geometry" />
        </mxCell>
        <mxCell id="qrQe8VKDjoJQSSapWJR--108" value="" style="group;fillColor=#f9f7ed;strokeColor=#36393d;" vertex="1" connectable="0" parent="qrQe8VKDjoJQSSapWJR--101">
          <mxGeometry x="360" y="350" width="160" height="290" as="geometry" />
        </mxCell>
        <mxCell id="qrQe8VKDjoJQSSapWJR--109" value="车道线状态判定" style="rounded=0;whiteSpace=wrap;html=1;" vertex="1" parent="qrQe8VKDjoJQSSapWJR--108">
          <mxGeometry x="20" y="41.42857142857143" width="120" height="62.142857142857146" as="geometry" />
        </mxCell>
        <mxCell id="qrQe8VKDjoJQSSapWJR--110" value="车道线跟踪与预测" style="rounded=0;whiteSpace=wrap;html=1;" vertex="1" parent="qrQe8VKDjoJQSSapWJR--108">
          <mxGeometry x="20" y="124.28571428571429" width="120" height="62.142857142857146" as="geometry" />
        </mxCell>
        <mxCell id="qrQe8VKDjoJQSSapWJR--111" value="车道线质量管理" style="rounded=0;whiteSpace=wrap;html=1;" vertex="1" parent="qrQe8VKDjoJQSSapWJR--108">
          <mxGeometry x="20" y="207.14285714285717" width="120" height="62.142857142857146" as="geometry" />
        </mxCell>
        <mxCell id="qrQe8VKDjoJQSSapWJR--112" value="&lt;h1&gt;车道线模块&lt;/h1&gt;" style="text;html=1;strokeColor=none;fillColor=none;align=center;verticalAlign=middle;whiteSpace=wrap;rounded=0;" vertex="1" parent="qrQe8VKDjoJQSSapWJR--108">
          <mxGeometry x="20" y="10.357142857142858" width="130" height="20.714285714285715" as="geometry" />
        </mxCell>
        <mxCell id="qrQe8VKDjoJQSSapWJR--113" value="" style="group;fillColor=#f9f7ed;strokeColor=#36393d;" vertex="1" connectable="0" parent="qrQe8VKDjoJQSSapWJR--101">
          <mxGeometry x="1240" y="160" width="160" height="290" as="geometry" />
        </mxCell>
        <mxCell id="qrQe8VKDjoJQSSapWJR--114" value="" style="rounded=0;whiteSpace=wrap;html=1;fillColor=#f9f7ed;strokeColor=#36393d;" vertex="1" parent="qrQe8VKDjoJQSSapWJR--113">
          <mxGeometry width="160" height="290" as="geometry" />
        </mxCell>
        <mxCell id="qrQe8VKDjoJQSSapWJR--115" value="融合模式选择" style="rounded=0;whiteSpace=wrap;html=1;" vertex="1" parent="qrQe8VKDjoJQSSapWJR--113">
          <mxGeometry x="20" y="50" width="120" height="60" as="geometry" />
        </mxCell>
        <mxCell id="qrQe8VKDjoJQSSapWJR--116" value="车道线内航迹分类" style="rounded=0;whiteSpace=wrap;html=1;" vertex="1" parent="qrQe8VKDjoJQSSapWJR--113">
          <mxGeometry x="20" y="130" width="120" height="60" as="geometry" />
        </mxCell>
        <mxCell id="qrQe8VKDjoJQSSapWJR--117" value="系统航迹选择" style="rounded=0;whiteSpace=wrap;html=1;" vertex="1" parent="qrQe8VKDjoJQSSapWJR--113">
          <mxGeometry x="20" y="215" width="120" height="60" as="geometry" />
        </mxCell>
        <mxCell id="qrQe8VKDjoJQSSapWJR--118" value="航迹与车道线融合" style="text;html=1;strokeColor=none;fillColor=none;align=center;verticalAlign=middle;whiteSpace=wrap;rounded=0;" vertex="1" parent="qrQe8VKDjoJQSSapWJR--113">
          <mxGeometry x="30" y="20" width="100" height="20" as="geometry" />
        </mxCell>
        <mxCell id="qrQe8VKDjoJQSSapWJR--119" value="" style="group;fillColor=#f9f7ed;strokeColor=#36393d;" vertex="1" connectable="0" parent="qrQe8VKDjoJQSSapWJR--101">
          <mxGeometry x="360" y="30" width="160" height="300" as="geometry" />
        </mxCell>
        <mxCell id="qrQe8VKDjoJQSSapWJR--120" value="" style="rounded=0;whiteSpace=wrap;html=1;fillColor=#f9f7ed;strokeColor=#36393d;" vertex="1" parent="qrQe8VKDjoJQSSapWJR--119">
          <mxGeometry width="160" height="300" as="geometry" />
        </mxCell>
        <mxCell id="qrQe8VKDjoJQSSapWJR--121" value="局部航迹形成" style="rounded=0;whiteSpace=wrap;html=1;" vertex="1" parent="qrQe8VKDjoJQSSapWJR--119">
          <mxGeometry x="20" y="60" width="120" height="60" as="geometry" />
        </mxCell>
        <mxCell id="qrQe8VKDjoJQSSapWJR--122" value="关联质量设计" style="rounded=0;whiteSpace=wrap;html=1;" vertex="1" parent="qrQe8VKDjoJQSSapWJR--119">
          <mxGeometry x="20" y="140" width="120" height="60" as="geometry" />
        </mxCell>
        <mxCell id="qrQe8VKDjoJQSSapWJR--123" value="关联判决形成" style="rounded=0;whiteSpace=wrap;html=1;" vertex="1" parent="qrQe8VKDjoJQSSapWJR--119">
          <mxGeometry x="20" y="220" width="120" height="60" as="geometry" />
        </mxCell>
        <mxCell id="qrQe8VKDjoJQSSapWJR--124" value="&lt;h1&gt;局部航迹管理&lt;/h1&gt;" style="text;html=1;strokeColor=none;fillColor=none;align=center;verticalAlign=middle;whiteSpace=wrap;rounded=0;" vertex="1" parent="qrQe8VKDjoJQSSapWJR--119">
          <mxGeometry y="20" width="160" height="20" as="geometry" />
        </mxCell>
        <mxCell id="qrQe8VKDjoJQSSapWJR--125" value="" style="group" vertex="1" connectable="0" parent="qrQe8VKDjoJQSSapWJR--101">
          <mxGeometry x="560" y="70" width="640" height="520" as="geometry" />
        </mxCell>
        <mxCell id="qrQe8VKDjoJQSSapWJR--126" value="" style="group;fillColor=#f9f7ed;strokeColor=#36393d;container=0;" vertex="1" connectable="0" parent="qrQe8VKDjoJQSSapWJR--125">
          <mxGeometry width="640" height="520" as="geometry" />
        </mxCell>
        <mxCell id="qrQe8VKDjoJQSSapWJR--127" value="" style="group;fillColor=#f5f5f5;strokeColor=#666666;fontColor=#333333;" vertex="1" connectable="0" parent="qrQe8VKDjoJQSSapWJR--125">
          <mxGeometry x="440" y="85" width="160" height="360" as="geometry" />
        </mxCell>
        <mxCell id="qrQe8VKDjoJQSSapWJR--128" value="系统航迹预测" style="rounded=0;whiteSpace=wrap;html=1;" vertex="1" parent="qrQe8VKDjoJQSSapWJR--127">
          <mxGeometry x="10.666666666666666" y="212.30769230769232" width="128" height="55.38461538461539" as="geometry" />
        </mxCell>
        <mxCell id="qrQe8VKDjoJQSSapWJR--129" value="系统航迹形成" style="rounded=0;whiteSpace=wrap;html=1;" vertex="1" parent="qrQe8VKDjoJQSSapWJR--127">
          <mxGeometry x="10.666666666666666" y="64.61538461538461" width="128" height="55.38461538461539" as="geometry" />
        </mxCell>
        <mxCell id="qrQe8VKDjoJQSSapWJR--130" value="系统航迹更新" style="rounded=0;whiteSpace=wrap;html=1;" vertex="1" parent="qrQe8VKDjoJQSSapWJR--127">
          <mxGeometry x="10.666666666666666" y="138.46153846153848" width="128" height="55.38461538461539" as="geometry" />
        </mxCell>
        <mxCell id="qrQe8VKDjoJQSSapWJR--131" value="系统航迹终止" style="rounded=0;whiteSpace=wrap;html=1;" vertex="1" parent="qrQe8VKDjoJQSSapWJR--127">
          <mxGeometry x="10.666666666666666" y="286.1538461538462" width="128" height="55.38461538461539" as="geometry" />
        </mxCell>
        <mxCell id="qrQe8VKDjoJQSSapWJR--132" value="系统航迹管理" style="text;html=1;strokeColor=none;fillColor=none;align=center;verticalAlign=middle;whiteSpace=wrap;rounded=0;" vertex="1" parent="qrQe8VKDjoJQSSapWJR--127">
          <mxGeometry x="26.666666666666668" y="27.692307692307693" width="96" height="18.461538461538463" as="geometry" />
        </mxCell>
        <mxCell id="qrQe8VKDjoJQSSapWJR--133" value="" style="group" vertex="1" connectable="0" parent="qrQe8VKDjoJQSSapWJR--125">
          <mxGeometry x="240" y="130" width="160" height="320" as="geometry" />
        </mxCell>
        <mxCell id="qrQe8VKDjoJQSSapWJR--134" value="" style="rounded=0;whiteSpace=wrap;html=1;fillColor=#f5f5f5;strokeColor=#666666;fontColor=#333333;" vertex="1" parent="qrQe8VKDjoJQSSapWJR--133">
          <mxGeometry width="160" height="320" as="geometry" />
        </mxCell>
        <mxCell id="qrQe8VKDjoJQSSapWJR--135" value="航迹融合逻辑设计" style="rounded=0;whiteSpace=wrap;html=1;" vertex="1" parent="qrQe8VKDjoJQSSapWJR--133">
          <mxGeometry x="11.428571428571427" y="75.42087542087542" width="137.14285714285714" height="64.64646464646465" as="geometry" />
        </mxCell>
        <mxCell id="qrQe8VKDjoJQSSapWJR--136" value="航迹融合算法设计" style="rounded=0;whiteSpace=wrap;html=1;" vertex="1" parent="qrQe8VKDjoJQSSapWJR--133">
          <mxGeometry x="11.428571428571427" y="161.6161616161616" width="137.14285714285714" height="64.64646464646465" as="geometry" />
        </mxCell>
        <mxCell id="qrQe8VKDjoJQSSapWJR--137" value="航迹融合质量评价" style="rounded=0;whiteSpace=wrap;html=1;" vertex="1" parent="qrQe8VKDjoJQSSapWJR--133">
          <mxGeometry x="11.428571428571427" y="247.8114478114478" width="137.14285714285714" height="64.64646464646465" as="geometry" />
        </mxCell>
        <mxCell id="qrQe8VKDjoJQSSapWJR--138" value="航迹融合" style="text;html=1;strokeColor=none;fillColor=none;align=center;verticalAlign=middle;whiteSpace=wrap;rounded=0;" vertex="1" parent="qrQe8VKDjoJQSSapWJR--133">
          <mxGeometry x="51.42857142857142" y="43.0976430976431" width="57.14285714285714" height="21.54882154882155" as="geometry" />
        </mxCell>
        <mxCell id="qrQe8VKDjoJQSSapWJR--139" value="" style="group" vertex="1" connectable="0" parent="qrQe8VKDjoJQSSapWJR--125">
          <mxGeometry x="40" y="80" width="160" height="365" as="geometry" />
        </mxCell>
        <mxCell id="qrQe8VKDjoJQSSapWJR--140" value="" style="rounded=0;whiteSpace=wrap;html=1;fillColor=#f5f5f5;strokeColor=#666666;fontColor=#333333;" vertex="1" parent="qrQe8VKDjoJQSSapWJR--139">
          <mxGeometry y="50" width="160" height="315" as="geometry" />
        </mxCell>
        <mxCell id="qrQe8VKDjoJQSSapWJR--141" value="确定关联准则" style="rounded=0;whiteSpace=wrap;html=1;" vertex="1" parent="qrQe8VKDjoJQSSapWJR--139">
          <mxGeometry x="11.347517730496454" y="104.28571428571429" width="136.17021276595744" height="69.52380952380953" as="geometry" />
        </mxCell>
        <mxCell id="qrQe8VKDjoJQSSapWJR--142" value="关联质量设计" style="rounded=0;whiteSpace=wrap;html=1;" vertex="1" parent="qrQe8VKDjoJQSSapWJR--139">
          <mxGeometry x="11.347517730496454" y="196.984126984127" width="136.17021276595744" height="69.52380952380953" as="geometry" />
        </mxCell>
        <mxCell id="qrQe8VKDjoJQSSapWJR--143" value="关联判决形成" style="rounded=0;whiteSpace=wrap;html=1;" vertex="1" parent="qrQe8VKDjoJQSSapWJR--139">
          <mxGeometry x="11.347517730496454" y="289.6825396825397" width="136.17021276595744" height="69.52380952380953" as="geometry" />
        </mxCell>
        <mxCell id="qrQe8VKDjoJQSSapWJR--144" value="航迹关联" style="text;html=1;strokeColor=none;fillColor=none;align=center;verticalAlign=middle;whiteSpace=wrap;rounded=0;" vertex="1" parent="qrQe8VKDjoJQSSapWJR--139">
          <mxGeometry x="44.255319148936174" y="57.936507936507944" width="71.48936170212767" height="23.174603174603178" as="geometry" />
        </mxCell>
        <mxCell id="qrQe8VKDjoJQSSapWJR--145" value="&lt;h1&gt;融合中心&lt;/h1&gt;" style="text;html=1;strokeColor=none;fillColor=none;align=center;verticalAlign=middle;whiteSpace=wrap;rounded=0;" vertex="1" parent="qrQe8VKDjoJQSSapWJR--125">
          <mxGeometry x="280" y="20" width="150" height="28.64" as="geometry" />
        </mxCell>
      </root>
    </mxGraphModel>
  </diagram>
</mxfile>
